<?xml version="1.0" standalone="no"?>
<!DOCTYPE svg PUBLIC "-//W3C//DTD SVG 1.1//EN" "http://www.w3.org/Graphics/SVG/1.1/DTD/svg11.dtd" >
<svg xmlns="http://www.w3.org/2000/svg">
<metadata></metadata>
<defs>
<font id="bigfishblack" horiz-adv-x="1359" >
<font-face units-per-em="2048" ascent="1638" descent="-410" />
<missing-glyph horiz-adv-x="327" />
<glyph horiz-adv-x="2048" />
<glyph horiz-adv-x="2048" />
<glyph unicode="&#xd;" horiz-adv-x="327" />
<glyph unicode=" "  horiz-adv-x="327" />
<glyph unicode="&#x09;" horiz-adv-x="327" />
<glyph unicode="&#xa0;" horiz-adv-x="327" />
<glyph unicode="!" horiz-adv-x="643" d="M41 1325l551 18l-98 -921h-435zM43 260l465 -4l20 -264l-479 -8z" />
<glyph unicode="&#x22;" horiz-adv-x="905" d="M20 1280l402 -6l-25 -596l-336 -14zM481 1278l383 2l-30 -623l-318 7z" />
<glyph unicode="#" horiz-adv-x="1411" d="M100 674v297l154 4l-10 270l362 8l4 -268l205 4l6 256l367 8l-12 -254l149 5l-16 -316l-150 -2l-14 -254h155l-10 -233h-157l-11 -199l-331 -14l6 217l-179 4l5 -207l-328 -14l-10 225h-156l-6 225h153l-10 240zM602 690l4 -266h207l6 268z" />
<glyph unicode="$" horiz-adv-x="1454" d="M41 823q0 86 41 149.5t110.5 107.5t161.5 71t197 37l-2 172l502 10l-25 -182q115 -4 218.5 -11.5t168.5 -13.5l-29 -499q-113 25 -225 45q-98 16 -208.5 30.5t-207.5 14.5q-55 0 -93 -12.5t-43 -32t27 -41t116 -39.5q137 -31 249.5 -64t192.5 -74.5t124 -93t44 -118.5 q0 -59 -33 -108.5t-91 -85.5t-141 -57.5t-182 -27.5q-4 -31 -7 -61.5t-6 -57t-6 -43t-5 -16.5q-4 0 -61.5 1t-127.5 5q-82 2 -184 6l-8 182q-111 12 -183.5 26.5t-117.5 27.5q-53 14 -84 26l-2 228q4 -6 61.5 -32t155.5 -52.5t228 -48t278 -21.5q86 0 134 18.5t53 45t-35 54 t-132 44.5q-186 35 -337.5 68.5t-259 86t-167 132t-59.5 204.5z" />
<glyph unicode="%" horiz-adv-x="1751" d="M20 862q0 127 55.5 202t133.5 115t161 52t140 12q63 0 148 -14.5t161 -56.5t128 -116.5t52 -195.5v-31l277 439l383 2l-553 -623q49 12 93 16.5t79 4.5q57 0 132 -12.5t141.5 -49.5t112.5 -103.5t46 -172.5t-43 -176t-106.5 -112t-138 -58.5t-138.5 -16.5 q-63 0 -140 14.5t-143.5 54.5t-111.5 111.5t-45 184.5q0 10 1 19t1 20l-244 -371h-309l383 469q-41 -10 -82 -15t-76 -5q-72 0 -159 16t-162.5 62t-126 127t-50.5 208zM369 752q0 -37 43 -68t118 -31q76 0 120 29t44 70q0 88 -168 88q-80 0 -118.5 -27t-38.5 -61zM1133 283 q0 -35 42 -66t113 -31q74 0 118 28t44 71q0 86 -164 86q-78 0 -115.5 -27t-37.5 -61z" />
<glyph unicode="&#x26;" horiz-adv-x="1689" d="M61 885q0 94 43 173t129 135t217.5 87t307.5 31q178 0 312 -12.5t226 -26.5q106 -16 185 -37l-11 -657l179 -3l-21 -182l-172 -2q-10 -41 -12 -78q-2 -31 3 -58.5t26 -35.5q20 -8 53 -6t65 6q37 6 78 17v-189q-55 -18 -108 -33q-47 -12 -102.5 -22t-108.5 -10t-94.5 13 t-69.5 30q-35 18 -60 43q-55 -27 -122 -48q-59 -16 -139.5 -30.5t-174.5 -14.5q-96 0 -195.5 16.5t-182.5 53.5t-135 97.5t-52 148.5t25.5 138t58.5 77q37 31 86 41q-66 27 -117 74q-45 41 -81 104t-36 160zM578 291q0 -31 18 -51.5t47 -32.5t65.5 -17.5t73.5 -5.5t83 10.5 t87 24.5q47 14 97 35l-9 135h-249q-37 0 -75 -3t-69 -14.5t-50 -30.5t-19 -50zM582 688q0 -35 20.5 -57.5t53 -37.5t74.5 -23.5t87 -10.5q102 -8 236 4l10 205q-135 25 -242 27q-45 0 -88 -4.5t-76.5 -15.5t-54 -32.5t-20.5 -54.5z" />
<glyph unicode="'" horiz-adv-x="475" d="M41 1264l393 12l-8 -606l-344 -2z" />
<glyph unicode="(" horiz-adv-x="745" d="M41 610q0 176 26.5 307.5t70.5 224.5t99.5 153.5t114.5 95.5q137 82 312 71l-17 -585q-78 8 -139 -37q-27 -18 -51.5 -52t-44 -86.5t-30.5 -126t-11 -172.5q0 -92 11 -160.5t28.5 -119.5t41 -86t48.5 -57q55 -53 129 -58l14 -174q-170 6 -301 100q-57 39 -111.5 101.5 t-96.5 154t-67.5 216t-25.5 290.5z" />
<glyph unicode=")" horiz-adv-x="745" d="M82 1462q174 10 311 -71q57 -35 113.5 -95.5t100.5 -153.5t71 -224.5t27 -307.5q0 -166 -26 -290.5t-69 -216t-97 -154t-110 -101.5q-133 -94 -301 -100l15 174q72 4 129 58q25 23 47 57.5t40.5 85.5t30 119.5t11.5 160.5q0 98 -12.5 172t-32 126.5t-44 86t-50.5 52.5 q-61 45 -138 37z" />
<glyph unicode="*" horiz-adv-x="964" d="M41 1176l324 26l118 260l146 -260l295 -12l-199 -223l53 -308l-276 127l-266 -145l18 309z" />
<glyph unicode="+" horiz-adv-x="983" d="M41 717l295 6l8 301l344 -6l-29 -289l283 6l-10 -274h-299l-29 -275l-282 -12l8 287h-283z" />
<glyph unicode="," horiz-adv-x="528" d="M41 0l2 352l444 19l-38 -627l-218 -12l17 268h-207z" />
<glyph unicode="-" horiz-adv-x="735" d="M61 707l613 18l-10 -328h-596z" />
<glyph unicode="." horiz-adv-x="565" d="M41 -16l4 376l479 -6v-182q0 -68 -2 -124t-4 -56h-23.5t-55 -1t-75.5 -2t-88 -1q-104 -2 -235 -4z" />
<glyph unicode="/" horiz-adv-x="980" d="M41 -2l389 1321l510 18l-469 -1331z" />
<glyph unicode="0" horiz-adv-x="1411" d="M61 647q0 139 34 239.5t88.5 170t124 111.5t141 65.5t139 31t119.5 7.5q55 0 124.5 -10.5t141 -36t139.5 -70.5t121 -114.5t85 -168t32 -229.5q0 -133 -30 -233.5t-79 -176t-114.5 -126t-135 -81t-141.5 -44t-135 -13.5q-94 0 -208 28t-213 102.5t-166 206.5t-67 341z M487 485q0 -55 15.5 -111.5t45.5 -100.5t73 -71.5t96 -27.5q55 0 98 23.5t74 66.5t47 100t16 125q0 272 -239 273q-57 0 -99.5 -22.5t-70 -60.5t-42 -88t-14.5 -106z" />
<glyph unicode="1" horiz-adv-x="911" d="M41 1028q51 -6 109.5 2t106.5 32.5t78 66.5t25 104l406 10l-6 -1055l137 -8l4 -182h-795l-4 195l181 -5l-7 545h-225z" />
<glyph unicode="2" horiz-adv-x="1290" d="M61 1208q76 14 166 27q78 10 179.5 19.5t218.5 9.5q125 0 238.5 -22.5t199.5 -71t136 -125t50 -187.5q0 -109 -34.5 -179.5t-97 -117.5t-148.5 -77.5t-187 -59.5q-92 -27 -144 -58.5t-74.5 -65.5t-21.5 -67.5t13 -64.5l295 10l16 129l334 27l-10 -342l-1071 8 q-27 117 -5.5 204t73 149.5t122 104.5t141 68.5t132 40t92.5 21.5q47 10 75.5 21.5t44 23.5t20.5 26.5t5 32.5q0 35 -32.5 56.5t-114.5 21.5q-41 0 -105.5 -7t-142.5 -17.5t-163 -23.5t-165 -26z" />
<glyph unicode="3" horiz-adv-x="1366" d="M41 1210q20 4 66.5 12.5t123 17.5t184 16.5t253.5 7.5q139 0 260 -20.5t209 -68t138 -123t50 -184.5q0 -104 -36 -169.5t-77 -104.5q-51 -45 -112 -66q43 -10 80 -39q31 -25 56.5 -69.5t25.5 -120.5q0 -154 -146.5 -238t-410.5 -84q-131 0 -238 15.5t-184 34.5 q-90 23 -162 49l-12 211q27 -12 90 -30.5t148 -35t182.5 -27t193.5 -6.5q41 2 70.5 26t29.5 71t-31.5 67.5t-68.5 22.5q-23 2 -57.5 2h-69.5h-82l4 176q35 0 68 2q29 2 59.5 4t52.5 6q53 8 73 35t20 62q0 18 -7.5 34.5t-31 29.5t-67.5 21.5t-118 8.5q-72 0 -156.5 -9.5 t-158.5 -19.5q-86 -12 -174 -29z" />
<glyph unicode="4" horiz-adv-x="1429" d="M0 492l614 737l658 10l-70 -727l221 2l7 -201l-242 4l-14 -129l137 -8l4 -178h-811l-4 191l184 -5l2 115l-680 6zM430 498l272 2l15 305z" />
<glyph unicode="5" horiz-adv-x="1404" d="M82 1217l1282 4l-45 -492l-832 21l-2 -144q229 20 390 10t262.5 -47t146.5 -98t45 -141q0 -168 -146.5 -260.5t-410.5 -92.5q-131 0 -253 18.5t-216 41.5q-111 25 -207 59l-12 211q27 -12 106.5 -31.5t179 -38t203 -31.5t181.5 -13q76 0 109.5 27.5t33.5 88.5 q0 59 -40 86t-159 27q-29 0 -67.5 -1t-84.5 -3t-95.5 -5t-96.5 -5q-113 -6 -233 -13z" />
<glyph unicode="6" horiz-adv-x="1404" d="M61 598q-2 182 65 317.5t215 216t389 106.5t587 -11l-29 -494q-188 33 -328.5 36t-233.5 -16.5t-137 -61.5t-40 -99q31 4 67.5 9t84 9t106.5 7.5t137 3.5q76 0 154 -14.5t141.5 -46.5t104 -82t40.5 -120q0 -66 -33.5 -133t-107.5 -121.5t-190.5 -89t-282.5 -34.5 q-348 0 -526 159.5t-183 458.5zM543 397q-6 -63 21.5 -107t73.5 -70.5t103.5 -35t108.5 -1.5t90 28.5t49 58.5q29 104 -89 134t-357 -7z" />
<glyph unicode="7" horiz-adv-x="1351" d="M41 1208l1311 -8l-33 -412q-84 -43 -177 -106.5t-164 -140t-104.5 -167.5t0.5 -190l140 -4l-2 -188l-750 8v184l119 2q0 125 56.5 229.5t141.5 182.5t187 131t195 78l-543 -35l-15 -149l-329 -7z" />
<glyph unicode="8" horiz-adv-x="1454" d="M41 868q0 184 164 288t526 104q201 0 333 -30t210 -85t108.5 -131t30.5 -168t-41 -153.5t-88 -98.5q-55 -43 -127 -68q55 -23 98 -55q37 -29 69 -70t32 -100t-25.5 -117.5t-93.5 -104.5t-186.5 -76t-305.5 -30q-188 0 -311 25t-195.5 69t-102.5 104t-30 132t30 116t67 68 q41 27 96 39q-74 29 -129 78q-49 41 -89 106.5t-40 157.5zM485 670q0 -31 21.5 -53.5t57.5 -38t80 -22.5t87 -7t86 5t78 19.5t56.5 37t21.5 57.5q0 70 -67.5 96.5t-166.5 26.5q-117 0 -185.5 -29t-68.5 -92zM504 276q0 -49 50 -81.5t185 -32.5q68 0 111 6t66.5 20.5 t32.5 34.5t9 49q0 55 -59 79t-164 24q-100 0 -165.5 -23.5t-65.5 -75.5z" />
<glyph unicode="9" horiz-adv-x="1445" d="M41 748q0 102 34 181t90 135t129 93t151.5 59.5t156.5 31.5t143 9q98 0 211 -31.5t208.5 -106.5t157.5 -195.5t62 -298.5t-60 -302t-160.5 -203t-229.5 -114t-264 -35q-137 0 -231.5 14.5t-153.5 30.5q-70 20 -113 45l-8 181q57 -25 133 -45q63 -16 152.5 -29.5 t199.5 -13.5q115 0 177.5 30.5t93.5 69.5q37 45 43 102q-59 -18 -151.5 -29.5t-195 -8t-205 25t-185.5 71.5t-134 131t-51 202zM523 612q7 -37 42 -59q39 -27 91.5 -36t108.5 -7t113.5 14.5t106.5 28.5q-6 59 -35 109q-25 41 -74 75.5t-139 34.5q-78 0 -128 -25.5 t-71.5 -61.5t-14.5 -73z" />
<glyph unicode=":" horiz-adv-x="587" d="M41 702v183v67.5t1 59t2 42t3 15.5l21 -1q22 -1 56 -2t77 -2t88 -1q104 -4 235 -6l-4 -361zM68 377l479 10q-2 -117 -4 -207q0 -39 -1 -75.5t-3 -65.5t-3 -47l-1 -17q-2 0 -22.5 1t-52.5 3.5t-73 4.5t-84 4q-100 6 -227 12z" />
<glyph unicode=";" horiz-adv-x="561" d="M41 1016l479 10l-4 -188q0 -35 -1 -69t-3 -60.5t-3 -42.5l-1 -15q-2 0 -22.5 1t-52.5 3t-73 4.5t-84 4.5q-100 6 -227 12zM55 352l445 19l-33 -627l-184 -2l-23 258h-201z" />
<glyph unicode="&#x3c;" horiz-adv-x="983" d="M61 666l738 421l110 -251l-424 -205l410 -174l-127 -299l-694 385z" />
<glyph unicode="=" horiz-adv-x="983" d="M41 518l901 -6l-10 -264l-885 14zM41 913l901 19l-10 -275h-885z" />
<glyph unicode="&#x3e;" horiz-adv-x="983" d="M94 813l123 283l705 -410l-4 -131l-732 -389l-86 272l400 185z" />
<glyph unicode="?" horiz-adv-x="1193" d="M41 1231q59 20 139 39q68 16 162 28.5t211 12.5q125 0 234.5 -21.5t191.5 -68.5t128 -122t46 -181q0 -70 -39 -115t-95 -80t-119.5 -64.5t-114 -70.5t-77 -98.5t-8.5 -145.5l-452 2q-18 76 2 139.5t68.5 113.5t119 87t150.5 59q78 23 107.5 47.5t21.5 46t-49 36 t-105 14.5q-115 0 -234.5 -30t-271.5 -91zM246 260l465 -4l20 -264l-479 -8z" />
<glyph unicode="@" horiz-adv-x="2291" d="M41 567q0 254 83 443.5t227.5 314.5t339 186.5t415.5 61.5q229 0 436 -61.5t364.5 -175t251 -273t93.5 -358.5q0 -186 -72 -340t-203 -255.5t-312 -140.5t-400 4l-17 207q-47 -57 -106 -102q-51 -39 -121 -70t-154 -31t-152.5 28t-117.5 88.5t-75.5 157.5t-26.5 236 t25.5 255t73.5 200t118.5 130t160.5 46q94 0 158 -31.5t106 -86t67.5 -124t43.5 -145.5v285l443 -27l-54 -809q106 16 189 74q35 25 69.5 59.5t61 83.5t43 115t16.5 150q0 92 -41 207.5t-138 219t-261 173t-410 69.5q-240 0 -412.5 -63.5t-284.5 -170t-166 -243.5t-54 -285 q0 -150 62.5 -299t176 -269t272.5 -194.5t351 -74.5q180 0 296 10t190.5 23.5t119.5 30t84 28.5l25 -221q-53 -10 -114.5 -20.5t-146.5 -17.5t-200 -11.5t-274 -4.5q-121 0 -246 28t-242 84t-218 141t-178 198t-121 255t-44 312zM886 399.5q-5 -49.5 8 -91.5t46 -70.5 t84 -28.5q66 0 106.5 47t67.5 104q29 68 47 152q-18 20 -43 39q-23 14 -57.5 26.5t-83.5 12.5q-53 0 -90 -29t-58.5 -70.5t-26.5 -91z" />
<glyph unicode="A" horiz-adv-x="1812" d="M0 209h158l299 551l-250 -4l-31 563l1055 -19l434 -1105h143l4 -197l-894 -4l-9 196h172l-45 146l-428 4l-76 -141l205 -9l6 -188l-739 -4zM682 537h301l-123 319z" />
<glyph unicode="B" horiz-adv-x="1804" d="M20 1305l1207 8q117 0 212 -29t162.5 -84t104.5 -135t37 -184t-36 -170t-77 -105q-51 -45 -112 -65q43 -10 79 -39q31 -25 56.5 -70t25.5 -121t-27.5 -135t-75.5 -99t-111.5 -60.5t-133.5 -20.5l-1227 4l-18 199l156 6l-13 553h-182zM680 197h465q41 0 68.5 29.5 t27.5 76.5q1 47 -31 71q-29 23 -63 23h-6l-461 -6v-194zM688 569l434 2q47 0 65.5 37t18.5 72t-19.5 64.5t-66.5 29.5h-428z" />
<glyph unicode="C" horiz-adv-x="1796" d="M20 653q0 131 33 232.5t86.5 175.5t121 124t137 80.5t134 44t113.5 13.5q150 0 244 -33t147 -71q61 -45 90 -103v193l588 4l-61 -746l-570 -6q-6 16 -23.5 50t-50 68t-82.5 58.5t-120 24.5q-76 0 -131 -24.5t-92 -63.5t-54.5 -88t-17.5 -99q0 -51 15.5 -106t47 -100 t83 -75t124.5 -30q76 0 127.5 20.5t86 50t55 62.5t32.5 60l545 10l-22 -379l-244 -2l-23 199q-43 -61 -107.5 -106.5t-140 -74t-156.5 -43t-159 -14.5q-80 0 -166 14.5t-170 47t-159.5 85t-134 129t-92.5 180t-34 238.5z" />
<glyph unicode="D" horiz-adv-x="1810" d="M51 1319q190 0 371 2h158t159.5 1t149.5 1h127q74 0 159 -9t168.5 -35t160.5 -71t136.5 -116.5t94 -174t34.5 -239.5t-34.5 -240.5t-95 -179.5t-138.5 -125t-165 -77.5t-176 -41t-169 -12.5h-129.5t-139.5 -1t-141.5 -2t-134.5 -1q-152 -2 -303 -2l-16 199l154 -7 l-33 570h-180zM731 188q18 0 49 2q27 0 70 2t108 1q63 0 122 18t103 56t70.5 95.5t26.5 135.5q0 74 -31.5 124t-80 80.5t-102.5 44t-99 13.5q-47 0 -88 -1t-72 -1q-37 -2 -68 -2z" />
<glyph unicode="E" horiz-adv-x="1744" d="M41 1317l1601 6l-26 -756h-361l-12 193l-526 -6v-185l287 4l-5 -204l-294 -13l4 -172l526 6l16 193l340 18v-395l-1521 -10l-4 203h190l-27 555h-170z" />
<glyph unicode="F" horiz-adv-x="1705" d="M41 1313l1645 10l-35 -768l-391 -10l-11 213l-506 -4l-16 -181l348 -4l-4 -194l-344 -15v-172h231l-14 -188h-823l-10 188h163l-16 574l-199 -8z" />
<glyph unicode="G" horiz-adv-x="1728" d="M41 680q0 162 56.5 284.5t155.5 205.5t233.5 126t287.5 43l852 4l-41 -579q-172 6 -321 14q-63 2 -129 5t-125.5 6.5t-108.5 4.5t-78 1q-59 0 -113.5 -16.5t-97.5 -50.5t-68.5 -87t-25.5 -125q0 -74 23.5 -134t64.5 -102t96.5 -66t118.5 -24t119.5 18.5t98.5 46.5 t66.5 60.5t27.5 61.5l-285 -8l-2 204l778 35l-29 -631q-82 0 -147 3q-55 2 -101.5 4t-46.5 6t1.5 48t3.5 95l4 135q-31 -51 -78 -101t-113.5 -89t-158 -62.5t-209.5 -23.5q-162 0 -293 47t-223.5 136t-142.5 216t-50 289z" />
<glyph unicode="H" horiz-adv-x="1867" d="M41 1315l803 8v-545l-168 -4l-14 -207l522 6l-4 197l-142 -4l-6 553l785 4l-21 -553l-129 4l-25 -586h138l-6 -188l-750 -8l4 201l158 4l-2 184l-500 -4v-184l141 -9l4 -184l-702 -10l-4 209h113l-39 561l-142 4z" />
<glyph unicode="I" horiz-adv-x="1064" d="M41 1315l983 8l-43 -565h-223l-4 -563l137 -9l18 -188h-782l-4 201l180 -4l-12 567h-219z" />
<glyph unicode="J" horiz-adv-x="1533" d="M10 428q0 84 34 144.5t84 100.5t111.5 58.5t116.5 18.5t119 -24t117 -61.5t89 -89t36 -106.5t-26.5 -97t-61.5 -72t-71 -49.5t-54 -29.5q27 -10 87 -21.5t120 -11.5q53 0 94 19.5t68.5 50.5t40.5 69q10 33 10 64v10l-29 355h-274l-41 565l913 2l-2 -563l-109 2v-246 q0 -43 -4 -99.5t-23.5 -116.5t-56 -118.5t-100 -104.5t-160 -74t-231.5 -28q-203 0 -353.5 40t-249 103.5t-146.5 144.5t-48 165z" />
<glyph unicode="K" horiz-adv-x="1867" d="M41 1329h809l-6 -561h-103l7 -178l231 8l192 176l-145 6l6 547l785 14l-33 -557l-191 -14l-250 -190l379 -373h146v-203l-856 -10l4 196h151l-211 205l-215 -6l-4 -201h150l-4 -192l-793 4l-6 188l184 5l-6 579l-205 -4z" />
<glyph unicode="L" horiz-adv-x="1601" d="M20 1307l977 8l-47 -565l-213 -7l11 -516l323 6l103 451l407 14l-35 -721l-1495 15v203l223 10l-10 553l-213 6z" />
<glyph unicode="M" horiz-adv-x="2164" d="M41 1309h813l254 -744l299 744l713 6l-39 -557l-137 6l8 -576h73q29 0 55.5 1t35.5 1q8 0 9 -32v-12q0 -26 -3 -58q-4 -45 -11 -100l-811 12l5 178l174 8l20 609l-379 -830l-235 -12l-353 848l7 -615l147 -4l14 -186l-604 10l-4 197l146 -4l-5 577l-172 -4z" />
<glyph unicode="N" horiz-adv-x="1959" d="M41 1313l913 -10q35 -109 72 -211q31 -88 67.5 -184.5t67.5 -164.5t74 -157.5t84 -169.5q47 -96 98 -193l-14 525l-164 6l-25 555l705 6l-29 -565l-151 12l-41 -756l-719 -53l-424 860l23 -629h184v-190l-647 10l-6 191l143 6l-33 559l-139 -6z" />
<glyph unicode="O" horiz-adv-x="1769" d="M31 688q0 150 43 256.5t112.5 180t157.5 117.5t180 68.5t179.5 32t152.5 7.5q74 0 167 -10.5t191.5 -38t192.5 -75.5t168 -123t119 -180.5t45 -246.5t-42 -250t-111.5 -189.5t-160 -135t-186.5 -87t-193.5 -47t-179.5 -14.5t-176 13.5t-186 45t-178 85t-151.5 135 t-104.5 194.5t-39 262zM526 502q0 -61 26 -119.5t73 -105t111.5 -75t144.5 -28.5q78 0 143.5 24.5t113.5 69.5t74.5 106.5t26.5 133.5q0 143 -94 220t-271 77q-84 0 -148 -24.5t-108.5 -66.5t-68 -97.5t-23.5 -114.5z" />
<glyph unicode="P" horiz-adv-x="1740" d="M41 1337l1094 -8q49 0 111.5 -1t128 -12t128 -37t110.5 -77t77.5 -133t29.5 -203q0 -182 -50 -287.5t-128 -161t-171 -70.5t-179 -15h-492l-2 -144l273 -8v-180l-881 -12l-6 217l149 -4v559h-180zM692 528q100 0 185 2q72 0 140 1t93 1t51.5 10.5t48 28t36 43t14.5 56.5 q0 63 -42 87.5t-108 24.5q-41 0 -110.5 -1t-137.5 -3q-80 -2 -166 -2z" />
<glyph unicode="Q" horiz-adv-x="1775" d="M31 682q0 154 41 264.5t108.5 184t156.5 117.5t186.5 66.5t194.5 29t183 6.5q96 0 198.5 -11.5t199 -39t182.5 -76.5t150.5 -126t102.5 -184.5t38 -253.5q0 -193 -67 -322.5t-175 -211.5l272 -215l-444 -330l-256 381q-51 -8 -102.5 -11t-98.5 -3q-92 0 -192.5 11 t-197.5 42t-184 83t-152.5 134t-104.5 196.5t-39 268.5zM537 467q0 -96 37.5 -155.5t93 -92.5t118 -45t111.5 -12t110.5 13t117 48t92 93.5t36.5 150.5q0 90 -36.5 149.5t-90 94t-116 48t-113.5 13.5t-113.5 -12t-118 -45t-92 -93.5t-36.5 -154.5z" />
<glyph unicode="R" horiz-adv-x="1818" d="M41 1313l1212 -6q268 -2 394.5 -125t126.5 -367q0 -129 -47.5 -213t-102.5 -135q-68 -59 -149 -92l157 -199h146v-196l-631 10l-229 375h-197l4 -189h172l6 -192l-797 6l-14 196h148l-21 574h-158zM700 774l5 -223h479q53 0 92 36t39 81q0 47 -36 78.5t-85 31.5h-40 t-65.5 -1t-80.5 -1h-86q-100 -2 -222 -2z" />
<glyph unicode="S" horiz-adv-x="1746" d="M20 895q0 113 52.5 191.5t136.5 129t191.5 74t217.5 23.5q121 0 221.5 -21.5t175.5 -52.5t121 -63.5t58 -55.5l-4 193l516 8l-31 -651l-465 6q-20 31 -58 61.5t-86 57t-105.5 43t-114.5 16.5q-59 0 -98 -20q-40 -20 -46 -50q-1 -5 -1 -10q0 -25 30 -50q35 -30 123 -48 q211 -43 360.5 -82t244.5 -83t138 -98.5t43 -129.5q0 -72 -49 -130.5t-132 -99.5t-191.5 -63.5t-227.5 -22.5q-88 0 -179 11.5t-173 36t-148.5 61.5t-105.5 88l6 -166h-219l-57 344l457 -10q49 -74 162.5 -130.5t289.5 -56.5q88 -1 136 15q51 16 51 42q0 22 -44 46 q-46 26 -141 45q-129 25 -258 50.5t-246.5 57t-218 73.5t-174.5 100.5t-116 137.5t-42 183z" />
<glyph unicode="T" horiz-adv-x="1603" d="M41 1319h1522l-35 -780l-320 -41l21 319l-199 -2l6 -627h217l-4 -188h-903l-16 203l219 -4l20 606l-198 -8l20 -316l-340 6z" />
<glyph unicode="U" horiz-adv-x="1761" d="M41 1315l774 4l-4 -561l-166 -4v-414q0 -76 37 -105.5t90 -29.5h219q49 0 71.5 14t32 37t9.5 49.5v50.5l16 398h-155l-4 565l759 6l-14 -565l-129 2l-41 -373q-6 -59 -21.5 -126.5t-58.5 -126t-123 -97.5t-217 -41l-526 -8h-11q-133 0 -210 48q-80 50 -119 117.5 t-49.5 135t-12.5 102.5l-24 367h-111z" />
<glyph unicode="V" horiz-adv-x="1900" d="M20 1325l857 -4l10 -547h-152l230 -530l268 538l-168 -4v547l815 4l-16 -563l-174 8l-461 -768l-606 -14l-410 778l-180 -8z" />
<glyph unicode="W" horiz-adv-x="2228" d="M20 1321l820 2l-11 -565l-141 6l88 -440l311 1003l191 4l276 -1003l80 440l-127 -6l11 549l761 12l-86 -549l-131 -2l-237 -782l-568 8l-83 590l-170 -582l-572 -10l-221 766l-141 -2z" />
<glyph unicode="X" horiz-adv-x="1935" d="M20 1321l928 4l13 -557l-132 -4l226 -158l227 150l-141 10v543l753 10l-14 -563l-137 8l-467 -313l434 -252l139 4l-4 -205l-872 -4l-4 186l114 10l-194 144l-203 -150l115 4l-13 -186l-663 -8l4 196l129 -4l422 285l-453 293l-159 -4z" />
<glyph unicode="Y" horiz-adv-x="1949" d="M41 1321h915l-12 -559l-133 -4l219 -180l254 184l-154 -4l-4 561l783 6l-43 -565l-183 -4l-481 -383l6 -189l187 4l-6 -186l-885 -8l-17 194l248 -2v160l-502 410l-157 4z" />
<glyph unicode="Z" horiz-adv-x="1685" d="M41 1315h1624l-41 -514l-846 -588l486 14l47 217l286 23l-30 -463l-1483 -6l4 186l825 637l-497 -8l-21 -246l-321 -6z" />
<glyph unicode="[" horiz-adv-x="745" d="M109 1462h550l-30 -588l-189 7v-924l99 4q37 0 68.5 -1t35.5 -7q2 -6 2 -34v-59.5t-1 -58t-1 -28.5t-22.5 -3t-58.5 -1t-82 1t-93 1q-113 2 -256 4z" />
<glyph unicode="\" horiz-adv-x="915" d="M41 1319h506l389 -1321l-418 -31z" />
<glyph unicode="]" horiz-adv-x="745" d="M66 1434l542 28l6 -1695l-514 14l9 188l180 8l-13 897l-188 -8z" />
<glyph unicode="^" d="M287 1223l282 354l279 6l235 -360l-272 -6l-145 129l-164 -123h-215z" />
<glyph unicode="_" horiz-adv-x="1325" d="M-6 0h1370l-10 -268h-1354z" />
<glyph unicode="`" d="M283 1516l379 61l237 -328l-252 -26z" />
<glyph unicode="a" horiz-adv-x="1320" d="M20 276q0 76 27 129.5t75 87t114.5 48t144.5 14.5q152 0 240 -14.5t135 -18.5q4 31 5 59.5t-12.5 51t-47 37t-97.5 14.5q-66 0 -158 -16.5t-178 -34.5q-100 -23 -209 -51l29 487q82 14 178 27q82 10 189.5 19t224.5 9t212 -27.5t161.5 -79.5t100.5 -129q30 -69 30 -155 v-20l-27 -541l133 8l-2 -180h-536l4 160q-53 -53 -119 -92q-55 -35 -128 -64t-155 -29q-166 0 -250 69t-84 232zM446 295q0 -41 30 -64.5t69 -23.5q18 0 47 13t57.5 36t55 50t38.5 56q-29 2 -59 7q-27 4 -56.5 6t-58.5 2q-55 0 -89 -20.5t-34 -61.5z" />
<glyph unicode="b" horiz-adv-x="1409" d="M41 1468l569 5l-10 -635q25 74 54.5 127t73.5 89t104.5 53t146.5 17t156.5 -43t120 -120.5t76 -187.5t26.5 -245t-37 -237.5t-95.5 -173t-132 -106.5t-149.5 -36t-139.5 30t-110.5 65q-53 41 -98 94l-4 -160l-541 -6l-6 188l143 -8l-20 735l-113 -6zM586 431 q18 -69 56 -113t84 -65.5t77 -21.5t55.5 16.5t40.5 43t25.5 59.5t9.5 68q0 33 -7 72.5t-23.5 73.5t-43 57.5t-65.5 23.5q-41 0 -76 -8t-64 -19q-33 -10 -61 -24q-15 -55 -15 -102q0 -33 7 -61z" />
<glyph unicode="c" horiz-adv-x="1345" d="M61 541q0 96 17.5 199.5t64.5 189.5t127 141t207 55q92 0 157.5 -34.5t108.5 -88t68 -116t37 -115.5l-25 328h492l-43 -578l-447 -18q-10 33 -32 57q-18 23 -51 41.5t-85 18.5q-53 0 -89 -20.5t-57.5 -53.5t-31.5 -72t-10 -78q0 -43 11.5 -85t34 -73.5t56 -51t76.5 -19.5 q51 0 87 17.5t57.5 44t32 58t14.5 60.5l403 -4l-10 -395l-221 -4l18 217q-16 -23 -48 -56.5t-87 -67.5t-135 -57.5t-193 -23.5q-119 0 -213 46t-158.5 125t-98.5 185.5t-34 227.5z" />
<glyph unicode="d" horiz-adv-x="1433" d="M61 487q0 139 26 255t74 200t118.5 130t160.5 46q94 0 158 -31.5t105.5 -86t67.5 -124t44 -145.5l-10 737h588l-19 -553l-155 9l-15 -744l156 2l-17 -184l-528 4v178q-47 -57 -106 -102q-51 -39 -121 -70t-154 -31t-152.5 28t-117.5 88.5t-76 157.5t-27 236zM454 400 q-1 -14 -1 -27q0 -34 9 -65q13 -42 46 -70.5t84 -28.5q66 0 106.5 47t67.5 104q29 68 47 152q-18 20 -43 39q-23 14 -57.5 26.5t-83.5 12.5q-53 0 -90 -29t-58.5 -70t-26.5 -91z" />
<glyph unicode="e" horiz-adv-x="1384" d="M61 483q0 348 160 506t459 158q150 0 287 -40t228 -135t119 -254q9 -47 9 -102q0 -127 -47 -292l-793 -2q6 -43 35 -76q25 -29 74 -52.5t141 -23.5t185.5 13.5t171.5 29.5q90 20 174 45l-35 -195q-94 -31 -191 -53q-82 -20 -177 -35.5t-179 -15.5q-55 0 -122.5 6 t-137.5 24.5t-134.5 53.5t-114.5 93.5t-81 143.5t-31 203zM479 479l412 15q6 19 6 36q0 20 -8 39q-12 29 -55 52.5t-142 23.5q-100 0 -144 -26.5t-61 -57.5q-12 -24 -12 -51q0 -15 4 -31z" />
<glyph unicode="f" horiz-adv-x="899" d="M31 1051l155 -11q-5 48 -5 91q0 62 11 115q17 89 62 149.5t112.5 91.5t153.5 31q135 0 220 -20.5t149 -35.5l-43 -284q-31 4 -62 4h-21q-42 -2 -75 -18.5t-50 -50.5q-13 -25 -13 -64q0 -14 2 -29l227 -19l-33 -403l-182 -16l10 -400l162 4v-192l-750 2l-8 184l164 8v375 l-170 -6z" />
<glyph unicode="g" horiz-adv-x="1415" d="M61 532q0 139 29 249t82 186.5t131 117.5t176 41q49 0 89 -16t73 -42t58.5 -59.5t43.5 -68.5q45 -82 70 -186l8 346l563 2l-8 -555l-125 6l-18 -625q-2 -61 -41 -114.5t-98.5 -93t-133 -63.5t-143.5 -24q-72 0 -179.5 15.5t-211.5 36.5q-121 23 -250 53l-8 194 q88 -20 172 -34q72 -14 149.5 -24.5t135.5 -10.5q113 0 159 46q41 42 41 101v10l-12 142q-35 -51 -80 -90q-39 -35 -93 -62.5t-126 -27.5t-151.5 29.5t-146 95t-111 170t-44.5 255.5zM449 381q0 -33 7 -64.5t24.5 -57.5t45 -41t68.5 -15t79 29.5t66.5 75.5t45 101.5 t16.5 108.5q-18 16 -43 31q-23 12 -53.5 22.5t-71.5 10.5q-47 0 -82 -19.5t-57.5 -49.5t-33.5 -64.5t-11 -67.5z" />
<glyph unicode="h" horiz-adv-x="1476" d="M31 1462l561 -2l10 -729q51 197 156.5 296t247.5 99q74 0 136 -31.5t107 -91t69 -145.5q21 -74 22 -163q0 -14 -1 -29l-16 -482h119l4 -186l-549 2l25 461q1 12 1 22q-1 47 -15 75q-18 34 -48 46q-20 8 -41 8q-13 0 -27 -3q-36 -7 -73 -24.5t-69 -43t-48 -49.5v-304 l178 9v-199l-739 6l-6 182l160 -6l-23 727l-131 2z" />
<glyph unicode="i" horiz-adv-x="802" d="M41 1087l602 7l-14 -906l153 -6l-14 -182l-692 6l-8 176h153l-8 385l-158 -6zM170 1470l494 -10l-15 -233l-463 -17z" />
<glyph unicode="j" horiz-adv-x="759" d="M0 -264l8 166q27 -10 53 -19q23 -8 47.5 -13t45.5 -5q41 0 76.5 23.5t33.5 70.5l-18 588h-183l-30 540l641 7l-6 -1143q0 -76 -28 -132.5t-71 -94t-94 -56t-100 -18.5q-94 0 -191.5 21.5t-183.5 64.5zM176 1458l522 6l-20 -252l-485 -2z" />
<glyph unicode="k" horiz-adv-x="1480" d="M31 1458l583 6l2 -901l193 6l82 109l-131 10l-6 410h641l-11 -467l-163 10l-127 -162l192 -295l174 6v-198l-528 6l-164 377h-152l-8 -195l172 -10v-172h-729l-6 182h158l-21 731h-137z" />
<glyph unicode="l" horiz-adv-x="827" d="M41 182l184 -2l2 735l-155 -12l-6 565h571l-10 -1288l159 2l-22 -184h-721z" />
<glyph unicode="m" horiz-adv-x="2060" d="M61 545v549l553 8l33 -373q23 92 51.5 165t71.5 123t102.5 76.5t141.5 26.5q86 0 136 -32.5t77.5 -86t38 -123t14.5 -145.5q23 86 52.5 157t72.5 121t102.5 77.5t139.5 27.5q86 0 140 -36t85 -97t41 -144t10 -177l-4 -482l131 6l-8 -188l-553 2l27 479v6q0 53 -34 80 q-35 28 -78 28h-3q-45 -1 -83 -31t-38 -85l-4 -297l106 2v-184l-514 -8l9 499q0 51 -38 75q-34 21 -73 21h-10q-45 -3 -83 -31t-38 -77l6 -291l117 -4l4 -188l-694 -4l-5 196l183 -4l-10 363h-175z" />
<glyph unicode="n" horiz-adv-x="1433" d="M41 1102h541l41 -375q12 88 41.5 161t73.5 125t104.5 81.5t138.5 29.5q76 0 136.5 -33.5t100 -86t60 -117t20.5 -123.5l-6 -584l121 -2l-2 -186l-532 4l18 489v8q-1 65 -31 89q-30 25 -72 24h-6q-46 -2 -92.5 -25.5t-70.5 -56.5v-340l131 2v-194l-682 14l-6 178l165 -4 l-10 373l-166 -2z" />
<glyph unicode="o" d="M61 492q0 158 28 280.5t98.5 207.5t190.5 129t302 44q190 0 311 -45t188.5 -131t93 -208.5t25.5 -276.5q0 -145 -51 -247t-137 -166.5t-196.5 -94t-229.5 -29.5t-231.5 27.5t-199.5 90t-139.5 165t-52.5 254.5zM479 373q0 -66 15.5 -104t43 -59.5t67.5 -27.5t87 -6 t84 9.5t63.5 34t40 65.5t13.5 102q0 125 -56.5 169t-166.5 44q-53 0 -90 -11t-59.5 -38t-32 -71t-9.5 -107z" />
<glyph unicode="p" horiz-adv-x="1474" d="M31 1096l635 12l-13 -360q14 70 47 137t80 120.5t111.5 85t144.5 31.5t148.5 -25.5t120 -92t80 -179t28.5 -284.5t-40 -283t-100.5 -174.5t-134 -88t-141.5 -24.5t-121 18.5t-95 47.5t-73.5 65.5t-54.5 73.5l6 -549l-442 -6l12 940l-172 -14zM641 547q-3 -22 -3 -42 q0 -37 10 -71q14 -51 39.5 -88t59 -56.5t64.5 -19.5q33 0 65.5 14.5t58.5 39t41 55t15 63.5q0 66 -41 119t-119 53q-39 0 -72.5 -11t-60.5 -23q-31 -14 -57 -33z" />
<glyph unicode="q" horiz-adv-x="1466" d="M61 539q0 100 25 204.5t76 189.5t132 139t195 54q57 0 102.5 -16t81.5 -43t62.5 -61.5t44.5 -69.5q45 -82 64 -188l-4 360l575 2l-8 -559l-131 -4l-19 -918l-438 -4l27 555q-37 -43 -76 -81t-83 -67.5t-97 -46t-121 -16.5q-129 0 -208 51.5t-124 133.5t-60.5 183 t-15.5 202zM483 399q0 -90 34 -138t108 -48q37 0 76.5 34t70.5 83t50 102q18 48 18 85v7q-31 35 -84.5 51.5t-100.5 16.5q-27 0 -56.5 -13.5t-55 -38t-43 -60.5t-17.5 -81z" />
<glyph unicode="r" horiz-adv-x="1234" d="M41 571l8 531l529 -2l36 -434q31 160 105 272q31 47 74 88t101 64.5t133 25.5h9q71 0 158 -29l-14 -528q-152 57 -271 66h-19q-41 -1 -81 -7q-49 -8 -87 -33.5t-62.5 -72.5t-26.5 -123q-2 -53 -2 -96q-2 -37 -2 -70v-41q-1 -8 29 -9h21q21 0 44 1q41 2 96 4l-10 -180 h-766l6 195h184l5 389z" />
<glyph unicode="s" horiz-adv-x="1392" d="M41 741q0 82 23.5 155t70.5 125t121 83t176 31q111 0 184.5 -29t119.5 -71t69.5 -88t32.5 -81l-7 246l521 12l-41 -540l-480 12q-16 59 -63 101t-139 42q-47 0 -73 -18.5t-27 -44t20.5 -51t68.5 -37.5l338 -92q131 -35 206 -88.5t75 -163.5q0 -121 -113.5 -194 t-312.5 -73q-90 0 -158.5 16.5t-118 42t-81 55.5t-50.5 59v-170l-239 -17l6 324l403 -4q6 -16 24.5 -37t51.5 -38.5t82 -29.5t115 -12q70 0 103.5 15.5t31.5 35t-36 39.5t-97 31l-414 65q-88 12 -159.5 44t-124 80t-81 114.5t-28.5 150.5z" />
<glyph unicode="t" horiz-adv-x="899" d="M41 1104l182 -2l2 186l449 -2l-8 -182l178 -2l-23 -553l-174 2l-8 -285q-2 -47 33 -58q26 -8 55 -8q11 0 21 1q49 6 110 26v-182q-29 -18 -74 -31q-39 -12 -102.5 -21t-155.5 -9t-149.5 32.5t-89 78.5t-43 97.5t-11.5 88.5l-4 268l-178 -2z" />
<glyph unicode="u" horiz-adv-x="1497" d="M31 1096l594 8l-11 -717v-10q0 -79 29 -137q31 -60 96 -60q33 0 68 24.5t62.5 63.5t45 86t17.5 90l2 117l-158 -2l-16 541h596l-13 -887l123 -6l-4 -205h-522v176q-20 -29 -55 -62.5t-84 -63t-111.5 -50t-140.5 -20.5t-138.5 25.5t-102.5 69.5t-64.5 103.5t-24.5 126.5 l-10 246l-168 -2z" />
<glyph unicode="v" horiz-adv-x="1452" d="M31 1110l694 -2l14 -551l-114 -2l170 -324l190 324h-133l4 549l565 8l-22 -563h-135l-353 -553l-397 4l-334 549l-137 -2z" />
<glyph unicode="w" horiz-adv-x="2007" d="M31 1116l686 -6v-555h-103l101 -336l258 889h143l207 -891l115 350l-101 -4l15 520l624 9l-43 -537l-157 -6l-211 -543l-414 -6l-113 573l-161 -585l-469 4l-218 563l-135 4z" />
<glyph unicode="x" horiz-adv-x="1538" d="M31 1104h735v-531l-135 -10l209 -131l184 139l-139 4l18 535l604 8l-55 -549l-147 -10l-291 -217l256 -154l149 7l-10 -189l-684 -2l6 133l164 4l-231 138l-189 -129h135l-2 -154l-516 -8l-6 182h137l275 201l-305 184h-146z" />
<glyph unicode="y" horiz-adv-x="1488" d="M31 1087l696 13v-553l-117 2l183 -320l194 316h-147l4 561l614 -4l-20 -561h-172l-451 -768l227 -2l19 -181h-742l-6 193l207 -2l135 209h-139l-334 549l-135 2z" />
<glyph unicode="z" horiz-adv-x="1363" d="M41 1104l1282 -10l-10 -486l-735 -409l454 -11l-8 179h233l-18 -373l-1061 -2l-24 217l718 422l-557 -2l-8 -152l-231 -12z" />
<glyph unicode="{" horiz-adv-x="704" d="M4 655q18 2 39 9q16 4 34.5 12t35.5 24q16 16 16 58.5t-4 98.5t-7 123t7 134.5t40 130t91 110.5t158.5 75.5t244.5 27.5l-8 -291q-2 -55 -3 -107t-3 -93t-3 -53l-1 -37q-88 8 -126 -10.5t-50 -50.5t-11 -71.5t-11.5 -77.5t-50.5 -69t-126 -41q74 -16 114 -43t57.5 -70 t17.5 -107.5t-6 -158.5q-8 -96 20.5 -147t65.5 -78q43 -31 100 -37l6 -158q-147 8 -236.5 40t-137.5 80t-65.5 106.5t-20.5 119t-3 119t-12 105.5q-10 33 -35 48t-51 21q-31 8 -66 6z" />
<glyph unicode="|" horiz-adv-x="729" d="M143 1454l443 8l-19 -1462l-407 -14z" />
<glyph unicode="}" horiz-adv-x="702" d="M45 1458q184 14 290.5 -31t160 -124.5t66.5 -178t12 -190.5t-3 -162t21 -92q14 -16 30.5 -20.5t28.5 -4.5q14 0 29 4l10 -256q-37 2 -67 -6q-27 -6 -50.5 -21.5t-33.5 -47.5q-14 -47 -13.5 -105.5t-2.5 -119t-20.5 -119t-65.5 -106.5t-137 -79.5t-237 -40.5l7 183 q63 2 110 24q41 18 72 59.5t24 118.5q-6 72 -8 128.5t11.5 99.5t51.5 71.5t111 44.5q-90 10 -128 48t-52 88.5t-15 105.5t-14.5 99t-52.5 69.5t-127 17.5l-1 24t-2 61.5t-2 86t-1 99.5q-2 119 -2 272z" />
<glyph unicode="~" d="M180 1253q45 82 101 150q47 57 111.5 105t142.5 53q47 2 83.5 -10.5t66.5 -27t55.5 -26.5t52 -11t56.5 20.5t69 70.5l307 -53q-74 -96 -150 -168q-33 -31 -68.5 -59.5t-72.5 -48t-74 -30t-72 -4.5q-51 8 -90 29t-72.5 40.5t-63.5 33.5t-62.5 12t-69.5 -25.5t-86 -80.5z " />
<glyph unicode="&#xa1;" horiz-adv-x="632" d="M41 1100l479 8l6 -277l-465 5zM51 -182l25 852h418l98 -873z" />
<glyph unicode="&#xa2;" horiz-adv-x="1282" d="M61 451q0 129 31 245.5t99.5 205.5t179 144.5t268.5 61.5l2 182h285q0 -20 -2 -49q-2 -25 -4 -59.5t-5 -75.5l306 -4l-7 -506q-51 2 -106 6q-47 4 -108.5 5t-120.5 5l-31 -395q29 10 47 19.5t31 19.5l274 -2l-4 -248q-53 -10 -94 -17t-81 -12.5t-85 -8.5t-107 -5 l-12 -162h-194l2 166q-125 10 -228.5 42t-178.5 90.5t-116 145.5t-41 206zM487 428q0 -41 4.5 -78t18.5 -66.5t42 -50t75 -28.5l6 395q-86 -20 -116 -66.5t-30 -105.5z" />
<glyph unicode="&#xa3;" horiz-adv-x="1454" d="M111 612h77l-12 107q-4 43 -1 99t21.5 116.5t57.5 119t104.5 104.5t162.5 74t233 28q203 0 331.5 -39t202.5 -98.5t101.5 -132t27.5 -140.5t-27.5 -117t-68.5 -80.5t-90 -47t-94 -15.5t-96.5 18.5t-95.5 50t-72.5 72.5t-28.5 86t21.5 79t50 58.5t57 41t45.5 24.5 q-23 10 -66 18.5t-102 8.5q-55 0 -96 -19.5t-68 -50.5t-39 -69t-10 -74l12 -218l185 2l18 -243h-190l10 -176l415 -4l11 178h235l-35 -371l-1177 -2l-2 207l110 8l-16 160h-88z" />
<glyph unicode="&#xa4;" horiz-adv-x="1368" d="M0 944l227 238l146 -140q76 47 156.5 67.5t146.5 20.5q72 0 167 -15t183 -68l125 116l178 -196l-127 -125q16 -41 25.5 -91.5t9.5 -109.5q0 -92 -18.5 -165t-49.5 -132l119 -115l-201 -247l-157 145q-72 -33 -136.5 -45t-109.5 -12q-49 0 -119.5 10t-144.5 43l-148 -146 l-211 179l150 141q-33 53 -52.5 121.5t-19.5 159.5q0 119 31 208zM430 567q0 -98 61.5 -161.5t184.5 -63.5t188.5 63.5t65.5 180.5q0 37 -13.5 74.5t-41 68.5t-71.5 50.5t-108 19.5q-127 0 -196.5 -66.5t-69.5 -165.5z" />
<glyph unicode="&#xa5;" horiz-adv-x="1468" d="M20 1223h717l-8 -496l-82 -4l119 -86l176 98l-102 -4l-2 496l610 6l-33 -500l-149 -4l-170 -151l266 8l-8 -140h-447l2 -43h439l-15 -114l-424 -10l2 -109l152 4l-4 -172l-719 -8l-14 180l200 -2v96l-381 -8l-10 141h391v41l-393 2l-10 127h207l-152 150l-129 4z" />
<glyph unicode="&#xa6;" horiz-adv-x="729" d="M143 1454l443 8l-4 -612l-428 4zM158 557h420l-11 -557l-407 -14z" />
<glyph unicode="&#xa7;" horiz-adv-x="1454" d="M90 881q0 80 47 147.5t125 116.5t180.5 77.5t210.5 28.5q106 0 225 -6t220 -14q117 -8 231 -19l-37 -499l-571 65q-51 6 -85 0t-40 -18t23.5 -27.5t107.5 -27.5q162 -27 266.5 -54.5t164 -60.5t83 -73t23.5 -91q0 -49 -27 -81t-63.5 -51.5t-76.5 -27.5t-67 -12 q23 -8 51.5 -21.5t54 -37t43 -58.5t17.5 -88q0 -57 -29.5 -107.5t-82 -87t-127 -57t-162.5 -20.5q-86 0 -168 9t-149.5 21.5t-117 23.5t-69.5 15l-15 170q41 -10 99.5 -22t124 -22.5t137.5 -17.5t141 -7q74 0 113 11t47 25.5t-13.5 30t-68.5 23.5q-168 31 -293 60.5 t-208 64.5t-124 81t-41 109q0 37 12.5 65.5t32 50t42 37t45.5 25.5q-33 18 -73 45t-76 68t-59.5 98.5t-23.5 139.5zM440 413.5q2 -16.5 33 -34t109 -33.5q74 -16 137 -29q53 -10 105 -21t75 -15q18 0 37.5 15t20.5 35.5t-27.5 42t-108.5 34.5q-82 14 -149 24 q-59 10 -114.5 19.5t-76.5 13.5q-12 -8 -27.5 -21.5t-13.5 -30z" />
<glyph unicode="&#xa8;" horiz-adv-x="1361" d="M221 1470l494 -10l-15 -233l-462 -17zM815 1464l465 4l-14 -233l-445 8z" />
<glyph unicode="&#xa9;" horiz-adv-x="1628" d="M41 647q0 152 37 269.5t98.5 203.5t140 144.5t162.5 93.5t167 50t151 15q66 0 149.5 -9t171.5 -34.5t172 -72.5t150.5 -123t106.5 -186.5t40 -262.5q0 -166 -42 -289.5t-109.5 -213t-153.5 -145.5t-172 -90t-166 -46t-135 -12t-134 10t-164 37.5t-169 77t-151.5 128 t-108.5 190.5t-41 265zM199 657q0 -121 38.5 -221t114.5 -174t188.5 -115t262.5 -41q303 0 463.5 156t160.5 443q0 92 -32.5 186t-101 169t-178 122t-263.5 47t-275.5 -44t-205.5 -121t-128 -181.5t-44 -225.5zM346 666q0 119 40 195.5t96.5 122.5t116.5 64.5t101 18.5 q86 0 139.5 -20.5t82.5 -42.5q35 -27 51 -62l-4 102l266 -24l-8 -404l-279 -6q-4 10 -14 31t-28.5 40t-46.5 33.5t-66 14.5q-43 0 -75 -14.5t-52.5 -38t-29.5 -52t-9 -57.5q0 -31 8 -64.5t26.5 -61t47 -45t69.5 -17.5q43 0 72 12t48.5 29.5t31.5 38t18 37.5h287v-142 l-135 -20l-6 57q-25 -37 -62 -63.5t-80 -44t-89 -25.5t-89 -8q-68 0 -142.5 19.5t-138 67.5t-105.5 128t-42 201z" />
<glyph unicode="&#xaa;" horiz-adv-x="1007" d="M61 594q0 53 19 90.5t52.5 61t80 34t101.5 10.5q106 0 167.5 -10.5t94.5 -13.5q3 22 3.5 42t-8.5 36t-32.5 26t-68.5 10q-46 0 -110.5 -11.5t-124.5 -24.5q-70 -16 -147 -36l21 341q57 10 124 19q58 7 133 13.5t157 6.5t148.5 -19.5t113 -55.5t70.5 -90t21 -123l-19 -379 l93 6l-1 -126h-376l3 112q-37 -37 -83 -64q-39 -25 -90 -45t-108 -20q-116 0 -175 48t-59 162zM359 608q0 -29 21 -45.5t49 -16.5q12 0 32.5 9t40.5 25t38.5 35t26.5 39q-20 2 -41 5q-19 3 -39.5 4.5t-41.5 1.5q-38 0 -62 -14.5t-24 -42.5z" />
<glyph unicode="&#xab;" horiz-adv-x="952" d="M41 649l121 383l299 6l-137 -397l165 -383l-280 -18zM467 641l129 391l295 -6l-184 -385l245 -393l-295 -12z" />
<glyph unicode="&#xac;" horiz-adv-x="983" d="M68 915q-2 0 31.5 -1t92 -2t132 -2t151.5 -3l414 -8q4 -172 6 -307q0 -57 1 -112.5t1 -98.5t-1 -69l-1 -25q-4 0 -57.5 -2t-118.5 -4l-172 -5v373l-475 -8q2 76 2 137q0 51 -1 94t-5 43z" />
<glyph unicode="&#xad;" horiz-adv-x="735" d="M61 707l613 18l-10 -328h-596z" />
<glyph unicode="&#xae;" horiz-adv-x="1628" d="M41 647q0 152 37 269.5t98.5 203.5t140 144.5t162.5 93.5t167 50t151 15q66 0 149.5 -9t171.5 -34.5t172 -72.5t150.5 -123t106.5 -186.5t40 -262.5q0 -166 -42 -289.5t-109.5 -213t-153.5 -145.5t-172 -90t-166 -46t-135 -12t-134 10t-164 37.5t-169 77t-151.5 128 t-108.5 190.5t-41 265zM199 657q0 -121 38.5 -221t114.5 -174t188.5 -115t262.5 -41q283 0 446 142l-331 4l-97 223l-88 -2l8 -221l-317 -4l-27 121l56 -2l-13 342h-92l-10 321q-70 -74 -104.5 -169t-34.5 -204zM346 1040h668q154 -2 227.5 -74.5t73.5 -220.5 q0 -78 -32 -127t-71 -77q-45 -35 -100 -52l158 -221q157 154 157 437q0 92 -32.5 186t-101 169t-178 122t-263.5 47q-166 0 -293 -50.5t-213 -138.5zM719 719l4 -135l250 4q33 0 54.5 21t21.5 48q0 29 -20.5 47.5t-49.5 18.5q-16 0 -58 -1t-87 -1q-53 -2 -115 -2z" />
<glyph unicode="&#xaf;" d="M238 1470l886 -10l-12 -233l-858 -17z" />
<glyph unicode="&#xb0;" horiz-adv-x="876" d="M82 973q0 74 16.5 131t56.5 97t109.5 60.5t173.5 20.5q111 0 179.5 -21.5t108.5 -61.5t54.5 -97t14.5 -129q0 -68 -30 -116t-79 -78.5t-112.5 -44t-133.5 -13.5q-68 0 -132 13.5t-114.5 42t-81 76.5t-30.5 120zM317 977q0 -47 36 -59.5t93 -12.5t89 15.5t32 62.5 q0 45 -33.5 60.5t-101.5 15.5q-66 0 -90.5 -17.5t-24.5 -64.5z" />
<glyph unicode="&#xb1;" horiz-adv-x="983" d="M41 254l901 18l-10 -274h-885zM41 741l295 7l8 301l344 -7l-29 -288l283 6l-10 -275h-299l-17 -141l-282 -12l-4 153h-283z" />
<glyph unicode="&#xb2;" horiz-adv-x="860" d="M54 1020q45 8 99 16q47 6 108 11.5t131 5.5q75 0 143 -13.5t119.5 -42.5t81.5 -75t30 -112t-20.5 -108t-58 -70.5t-89 -46.5t-112.5 -36q-55 -16 -86 -35t-44.5 -39t-13 -40.5t7.5 -38.5l177 6l10 77l200 16l-6 -205l-643 5q-16 70 -3 122.5t44 90t73 62.5t84.5 41 t79.5 24t55 13q29 6 46 13t26 14t12 15.5t3 19.5q0 21 -19.5 34t-68.5 13q-24 0 -63 -4t-85.5 -10.5t-97.5 -14.5t-99 -15z" />
<glyph unicode="&#xb3;" horiz-adv-x="860" d="M40 1021q12 2 39.5 7.5t73.5 10.5t110.5 9.5t152.5 4.5q83 0 155.5 -12t125.5 -40.5t83 -74t30 -110.5q0 -63 -21.5 -102t-46.5 -63q-30 -27 -67 -39q26 -6 48 -24q19 -15 34 -41.5t15 -72.5q0 -92 -88 -142.5t-246 -50.5q-79 0 -143 9.5t-110 20.5q-54 14 -97 30l-8 126 q17 -7 54.5 -18t88.5 -21t109.5 -16.5t116.5 -3.5q24 1 42 15.5t18 42.5t-19 40.5t-41 13.5q-14 1 -34.5 1h-41.5h-50l3 106q21 0 41 1q17 1 35.5 2.5t31.5 3.5q32 5 44 21t12 37q0 11 -4.5 21t-19 17.5t-40.5 13t-71 5.5q-43 0 -93.5 -6t-95.5 -12q-51 -7 -104 -17z" />
<glyph unicode="&#xb4;" horiz-adv-x="1435" d="M510 1249l295 307l379 -61l-422 -252z" />
<glyph unicode="&#xb5;" horiz-adv-x="1411" d="M31 1096l594 8l-15 -567q-2 -78 10.5 -130.5t35 -86t52 -48t62.5 -14.5q68 0 114 49t48 137l2 117l-158 -2l-16 541h596l-13 -887l123 -6l-4 -205h-522l14 137q-4 -31 -42 -68.5t-93 -57t-115.5 -10.5t-107.5 71l10 -451l-418 -20l21 950l-168 -2z" />
<glyph unicode="&#xb6;" horiz-adv-x="1671" d="M0 948q0 98 30.5 166t81 110t116 64.5t134 31.5t135 10t119.5 1l1014 6l-8 -559l-131 -4l-23 -1159l-438 -4l21 1182h-117v-1186l-445 -10l41 913h-30q-82 0 -170 13.5t-162 58.5t-121 132t-47 234z" />
<glyph unicode="&#xb7;" horiz-adv-x="1021" d="M266 784l465 -14q0 -16 -5 -64.5t-10 -99.5t-10.5 -91t-7.5 -40h-20.5t-47 -1t-66.5 -2t-77 -1q-92 -2 -206 -2z" />
<glyph unicode="&#xb8;" d="M444 -313l154 409l211 15l-49 -424h-316z" />
<glyph unicode="&#xb9;" horiz-adv-x="860" d="M113 912q30 -4 65 1t64 19.5t47 40t15 62.5l244 6l-4 -633l82 -5l3 -109h-477l-3 117l109 -3l-4 327h-135z" />
<glyph unicode="&#xba;" horiz-adv-x="1030" d="M70 745q0 111 19.5 197t69 145.5t133.5 90t211 30.5q133 0 217.5 -31.5t132 -91.5t65.5 -146t18 -194q0 -101 -36 -172.5t-96 -116.5t-137.5 -66t-160.5 -21t-162 19.5t-140 63.5t-97.5 115.5t-36.5 177.5zM362 662q0 -46 11 -72.5t30.5 -41.5t47.5 -19.5t60 -4.5 q33 0 59 7t44.5 24t28 45.5t9.5 71.5q0 87 -39.5 118t-116.5 31q-37 0 -63 -7.5t-41.5 -26.5t-22.5 -50t-7 -75z" />
<glyph unicode="&#xbb;" horiz-adv-x="1003" d="M0 248l246 393l-223 377l333 14l158 -391l-219 -401zM463 217l199 424l-170 397l313 -6l158 -391l-220 -401z" />
<glyph unicode="&#xbc;" horiz-adv-x="1900" d="M72 912q30 -4 65 1t64 19.5t47 40t15 62.5l244 6l-4 -633l82 -5l3 -109h-477l-3 117l109 -3l-4 327h-135zM299 -55l930 1417l358 -29l-1065 -1405zM564 296l368 442l395 6l-42 -436l133 1l4 -120l-145 2l-9 -77l83 -5l2 -107h-487l-2 115l110 -3l2 69l-408 3zM822 300 l163 1l9 183z" />
<glyph unicode="&#xbd;" horiz-adv-x="1970" d="M72 912q30 -4 65 1t64 19.5t47 40t15 62.5l244 6l-4 -633l82 -5l3 -109h-477l-3 117l109 -3l-4 327h-135zM299 -55l930 1417l358 -29l-1065 -1405zM708 726q45 8 99 16q47 6 108 11.5t131 5.5q75 0 143 -13.5t119.5 -42.5t81.5 -75t30 -112t-20.5 -108t-58 -70.5 t-89 -46.5t-112.5 -36q-55 -16 -86 -35t-44.5 -39t-13 -40.5t7.5 -38.5l177 6l10 77l200 16l-6 -205l-643 5q-16 70 -3 122.5t44 90t73 62.5t84.5 41t79.5 24t55 13q29 6 46 13t26 14t12 15.5t3 19.5q0 21 -19.5 34t-68.5 13q-24 0 -63 -4t-85.5 -10.5t-97.5 -14.5t-99 -15z " />
<glyph unicode="&#xbe;" horiz-adv-x="2007" d="M72 1021q12 2 39.5 7.5t73.5 10.5t110.5 9.5t152.5 4.5q83 0 155.5 -12t125.5 -40.5t83 -74t30 -110.5q0 -63 -21.5 -102t-46.5 -63q-30 -27 -67 -39q26 -6 48 -24q19 -15 34 -41.5t15 -72.5q0 -92 -88 -142.5t-246 -50.5q-79 0 -143 9.5t-110 20.5q-54 14 -97 30l-8 126 q17 -7 54.5 -18t88.5 -21t109.5 -16.5t116.5 -3.5q24 1 42 15.5t18 42.5t-19 40.5t-41 13.5q-14 1 -34.5 1h-41.5h-50l3 106q21 0 41 1q17 1 35.5 2.5t31.5 3.5q32 5 44 21t12 37q0 11 -4.5 21t-19 17.5t-40.5 13t-71 5.5q-43 0 -93.5 -6t-95.5 -12q-51 -7 -104 -17z M467 -55l930 1417l358 -29l-1065 -1405zM665 296l368 442l395 6l-42 -436l133 1l4 -120l-145 2l-9 -77l83 -5l2 -107h-487l-2 115l110 -3l2 69l-408 3zM923 300l163 1l9 183z" />
<glyph unicode="&#xbf;" horiz-adv-x="1193" d="M41 176q0 70 39 115t95 80t119.5 64.5t114 70.5t77 98.5t8.5 145.5l452 -2q18 -76 -2 -139.5t-68.5 -114t-119 -87t-150.5 -59.5q-78 -23 -107.5 -47.5t-21.5 -46t49 -35.5t105 -14q115 0 234.5 29.5t271.5 91.5l16 -463q-59 -23 -139 -41q-68 -16 -162 -27.5t-211 -11.5 q-127 0 -235.5 21.5t-190.5 68.5t-128 122t-46 181zM463 1102l479 8l6 -276l-465 4z" />
<glyph unicode="&#xc0;" horiz-adv-x="1812" d="M0 209h158l299 551l-250 -4l-31 563l1055 -19l434 -1105h143l4 -197l-894 -4l-9 196h172l-45 146l-428 4l-76 -141l205 -9l6 -188l-739 -4zM420 1679l438 50l238 -328l-312 -15zM682 537h301l-123 319z" />
<glyph unicode="&#xc1;" horiz-adv-x="1812" d="M0 209h158l299 551l-250 -4l-31 563l1055 -19l434 -1105h143l4 -197l-894 -4l-9 196h172l-45 146l-428 4l-76 -141l205 -9l6 -188l-739 -4zM682 537h301l-123 319zM737 1393l295 307l426 -62l-422 -252z" />
<glyph unicode="&#xc2;" horiz-adv-x="1812" d="M0 209h158l299 551l-250 -4l-31 563l1055 -19l434 -1105h143l4 -197l-894 -4l-9 196h172l-45 146l-428 4l-76 -141l205 -9l6 -188l-739 -4zM367 1401l258 354l411 6l154 -360l-348 -6l-70 129l-121 -117zM682 537h301l-123 319z" />
<glyph unicode="&#xc3;" horiz-adv-x="1812" d="M0 209h158l299 551l-250 -4l-31 563l1055 -19l434 -1105h143l4 -197l-894 -4l-9 196h172l-45 146l-428 4l-76 -141l205 -9l6 -188l-739 -4zM498 1442q47 100 106 180q25 33 55.5 66.5t64.5 59.5t73 43t80 19q51 2 90 -12t71.5 -31.5t59 -33t55.5 -14.5t61.5 25.5 t73.5 84.5l328 -64q-78 -115 -160 -200q-35 -37 -72.5 -71t-77.5 -58.5t-80 -37t-77 -3.5q-55 10 -97 34.5t-78 48t-68 41t-66.5 14.5t-75.5 -31.5t-92 -96.5zM682 537h301l-123 319z" />
<glyph unicode="&#xc4;" horiz-adv-x="1812" d="M0 209h158l299 551l-250 -4l-31 563l1055 -19l434 -1105h143l4 -197l-894 -4l-9 196h172l-45 146l-428 4l-76 -141l205 -9l6 -188l-739 -4zM225 1718l584 -14l-16 -277l-547 -18zM682 537h301l-123 319zM954 1710l551 4l-16 -276l-526 10z" />
<glyph unicode="&#xc5;" horiz-adv-x="1812" d="M0 209h158l299 551l-250 -4l-31 563l1055 -19l434 -1105h143l4 -197l-894 -4l-9 196h172l-45 146l-428 4l-76 -141l205 -9l6 -188l-739 -4zM573 1583q0 61 13.5 110.5t48.5 83t93 51t149 17.5q92 0 151 -18.5t92 -52t45.5 -82t12.5 -109.5q0 -57 -25 -98t-67 -66.5 t-96 -37t-111 -11.5q-59 0 -113.5 11.5t-97.5 36t-69 65.5t-26 100zM682 537l301 -2l-123 321zM772 1587q0 -41 31 -51t80 -10q47 0 74.5 13t27.5 52t-28.5 52.5t-86.5 13.5q-55 0 -76.5 -14.5t-21.5 -55.5z" />
<glyph unicode="&#xc6;" horiz-adv-x="2482" d="M10 209h199l444 551l-280 -4l26 563l2042 4l-26 -756h-361l-14 193l-524 -6v-185l286 4l-4 -204l-295 -13l4 -172l525 6l18 193l338 18v-395l-1528 -12l-8 196h172l-2 146l-416 4l-133 -141l207 -9l4 -188l-670 -4zM731 539l291 -4l-12 319z" />
<glyph unicode="&#xc7;" horiz-adv-x="1796" d="M20 653q0 131 33 232.5t86.5 175.5t121 124t137 80.5t134 44t113.5 13.5q150 0 244 -33t147 -71q61 -45 90 -103v193l588 4l-61 -746l-570 -6q-6 16 -23.5 50t-50 68t-82.5 58.5t-120 24.5q-76 0 -131 -24.5t-92 -63.5t-54.5 -88t-17.5 -99q0 -51 15.5 -106t47 -100 t83 -75t124.5 -30q76 0 127.5 20.5t86 50t55 62.5t32.5 60l545 10l-22 -379l-244 -2l-23 199q-74 -102 -200.5 -159.5t-261.5 -72.5l-123 -332l-387 -8l176 363q-98 25 -192.5 74t-167 129.5t-118 194.5t-45.5 267z" />
<glyph unicode="&#xc8;" horiz-adv-x="1744" d="M41 1317l1601 6l-26 -756h-361l-12 193l-526 -6v-185l287 4l-5 -204l-294 -13l4 -172l526 6l16 193l340 18v-395l-1521 -10l-4 203h190l-27 555h-170zM420 1679l438 50l238 -328l-312 -15z" />
<glyph unicode="&#xc9;" horiz-adv-x="1744" d="M41 1317l1601 6l-26 -756h-361l-12 193l-526 -6v-185l287 4l-5 -204l-294 -13l4 -172l526 6l16 193l340 18v-395l-1521 -10l-4 203h190l-27 555h-170zM647 1393l295 307l426 -62l-422 -252z" />
<glyph unicode="&#xca;" horiz-adv-x="1744" d="M41 1317l1601 6l-26 -756h-361l-12 193l-526 -6v-185l287 4l-5 -204l-294 -13l4 -172l526 6l16 193l340 18v-395l-1521 -10l-4 203h190l-27 555h-170zM455 1401l258 354l411 6l154 -360l-348 -6l-70 129l-121 -117z" />
<glyph unicode="&#xcb;" horiz-adv-x="1744" d="M41 1317l1601 6l-26 -756h-361l-12 193l-526 -6v-185l287 4l-5 -204l-294 -13l4 -172l526 6l16 193l340 18v-395l-1521 -10l-4 203h190l-27 555h-170zM225 1718l584 -14l-16 -277l-547 -18zM954 1710l551 4l-16 -276l-526 10z" />
<glyph unicode="&#xcc;" horiz-adv-x="1064" d="M41 1315l983 8l-43 -565h-223l-4 -563l137 -9l18 -186h-782l-4 199l180 -4l-12 567h-219zM78 1679l438 50l238 -328l-312 -15z" />
<glyph unicode="&#xcd;" horiz-adv-x="1064" d="M41 1315l983 8l-43 -565h-223l-4 -563l137 -9l18 -186h-782l-4 199l180 -4l-12 567h-219zM342 1393l295 307l426 -62l-422 -252z" />
<glyph unicode="&#xce;" horiz-adv-x="1064" d="M41 1315l983 8l-43 -565h-223l-4 -563l137 -9l18 -186h-782l-4 199l180 -4l-12 567h-219zM145 1401l258 354l412 6l154 -360l-348 -6l-70 129l-121 -117z" />
<glyph unicode="&#xcf;" horiz-adv-x="1064" d="M37 1718l493 -14l-16 -277l-457 -18zM41 1315l983 8l-43 -565h-223l-4 -563l137 -9l18 -186h-782l-4 199l180 -4l-12 567h-219zM676 1710l418 4l-17 -276l-393 10z" />
<glyph unicode="&#xd0;" horiz-adv-x="1810" d="M51 1319q190 0 371 2h158t159.5 1t149.5 1h127q74 0 159 -9t168.5 -35t160.5 -71t136.5 -116.5t94 -174t34.5 -239.5t-34.5 -240.5t-95 -179.5t-138.5 -125t-165 -77.5t-176 -41t-169 -12.5h-129.5t-139.5 -1t-141.5 -2t-134.5 -1q-152 -2 -303 -2l-16 199l154 -7 l-11 166l-164 -2l-16 234l168 4l-10 168h-180zM731 188q18 0 49 2q27 0 70 1.5t108 1.5q63 0 122 18t103 56t70.5 95.5t26.5 135.5q0 74 -31.5 124t-80 80.5t-102.5 44t-99 13.5q-47 0 -88 -1t-72 -1q-37 -2 -68 -2l-2 -154l215 6l-10 -248l-209 -2z" />
<glyph unicode="&#xd1;" horiz-adv-x="1959" d="M41 1313l913 -10q35 -109 72 -211q31 -88 67.5 -184.5t67.5 -164.5t74 -157.5t84 -169.5q47 -96 98 -193l-14 525l-164 6l-25 555l705 6l-29 -565l-151 12l-41 -756l-719 -53l-424 860l23 -629h184v-190l-647 10l-6 191l143 6l-33 559l-139 -6zM510 1411q47 100 106 180 q25 33 55.5 67t64.5 59.5t73 43t80 19.5q51 2 90 -12.5t71.5 -32t59.5 -32.5t55.5 -13t61.5 25.5t73 84.5l330 -63q-78 -115 -160 -201q-35 -37 -73.5 -71.5t-78.5 -59.5t-80 -37t-77 -4q-55 10 -97 34.5t-78 49.5t-67.5 41t-66.5 14t-75 -31.5t-91 -97.5z" />
<glyph unicode="&#xd2;" horiz-adv-x="1769" d="M31 688q0 150 43 256.5t112.5 180t157.5 117.5t180 68.5t179.5 32t152.5 7.5q74 0 167 -10.5t191.5 -38t192.5 -75.5t168 -123t119 -180.5t45 -246.5t-42 -250t-111.5 -189.5t-160 -135t-186.5 -87t-193.5 -47t-179.5 -14.5t-176 13.5t-186 45t-178 85t-151.5 135 t-104.5 194.5t-39 262zM420 1694l438 49l238 -328l-338 12zM526 502q0 -61 26 -119.5t73 -105t111.5 -75t144.5 -28.5q78 0 143.5 24.5t113.5 69.5t74.5 106.5t26.5 133.5q0 143 -94 220t-271 77q-84 0 -148 -24.5t-108.5 -66.5t-68 -97.5t-23.5 -114.5z" />
<glyph unicode="&#xd3;" horiz-adv-x="1769" d="M31 688q0 150 43 256.5t112.5 180t157.5 117.5t180 68.5t179.5 32t152.5 7.5q74 0 167 -10.5t191.5 -38t192.5 -75.5t168 -123t119 -180.5t45 -246.5t-42 -250t-111.5 -189.5t-160 -135t-186.5 -87t-193.5 -47t-179.5 -14.5t-176 13.5t-186 45t-178 85t-151.5 135 t-104.5 194.5t-39 262zM526 502q0 -61 26 -119.5t73 -105t111.5 -75t144.5 -28.5q78 0 143.5 24.5t113.5 69.5t74.5 106.5t26.5 133.5q0 143 -94 220t-271 77q-84 0 -148 -24.5t-108.5 -66.5t-68 -97.5t-23.5 -114.5zM684 1421l295 308l426 -62l-422 -252z" />
<glyph unicode="&#xd4;" horiz-adv-x="1769" d="M31 688q0 150 43 256.5t112.5 180t157.5 117.5t180 68.5t179.5 32t152.5 7.5q74 0 167 -10.5t191.5 -38t192.5 -75.5t168 -123t119 -180.5t45 -246.5t-42 -250t-111.5 -189.5t-160 -135t-186.5 -87t-193.5 -47t-179.5 -14.5t-176 13.5t-186 45t-178 85t-151.5 135 t-104.5 194.5t-39 262zM483 1401l258 354l412 6l154 -360l-349 -6l-69 129l-121 -117zM526 502q0 -61 26 -119.5t73 -105t111.5 -75t144.5 -28.5q78 0 143.5 24.5t113.5 69.5t74.5 106.5t26.5 133.5q0 143 -94 220t-271 77q-84 0 -148 -24.5t-108.5 -66.5t-68 -97.5 t-23.5 -114.5z" />
<glyph unicode="&#xd5;" horiz-adv-x="1769" d="M31 688q0 150 43 256.5t112.5 180t157.5 117.5t180 68.5t179.5 32t152.5 7.5q74 0 167 -10.5t191.5 -38t192.5 -75.5t168 -123t119 -180.5t45 -246.5t-42 -250t-111.5 -189.5t-160 -135t-186.5 -87t-193.5 -47t-179.5 -14.5t-176 13.5t-186 45t-178 85t-151.5 135 t-104.5 194.5t-39 262zM461 1442q47 100 106 180q25 33 55.5 66.5t64.5 59.5t73 43t80 19q51 2 90 -12t71.5 -31.5t59 -33t55.5 -14.5t61.5 25.5t73.5 84.5l328 -64q-78 -115 -160 -200q-35 -37 -72.5 -71t-77.5 -58.5t-80 -37t-77 -3.5q-55 10 -97 34.5t-78 48t-67.5 41 t-66.5 14.5t-76 -31.5t-92 -96.5zM526 502q0 -61 26 -119.5t73 -105t111.5 -75t144.5 -28.5q78 0 143.5 24.5t113.5 69.5t74.5 106.5t26.5 133.5q0 143 -94 220t-271 77q-84 0 -148 -24.5t-108.5 -66.5t-68 -97.5t-23.5 -114.5z" />
<glyph unicode="&#xd6;" horiz-adv-x="1769" d="M31 688q0 150 43 256.5t112.5 180t157.5 117.5t180 68.5t179.5 32t152.5 7.5q74 0 167 -10.5t191.5 -38t192.5 -75.5t168 -123t119 -180.5t45 -246.5t-42 -250t-111.5 -189.5t-160 -135t-186.5 -87t-193.5 -47t-179.5 -14.5t-176 13.5t-186 45t-178 85t-151.5 135 t-104.5 194.5t-39 262zM225 1718l584 -14l-16 -277l-547 -18zM526 502q0 -61 26 -119.5t73 -105t111.5 -75t144.5 -28.5q78 0 143.5 24.5t113.5 69.5t74.5 106.5t26.5 133.5q0 143 -94 220t-271 77q-84 0 -148 -24.5t-108.5 -66.5t-68 -97.5t-23.5 -114.5zM954 1710l551 4 l-16 -276l-526 10z" />
<glyph unicode="&#xd7;" horiz-adv-x="983" d="M41 797q61 68 113 121q20 23 41.5 44t37 37.5t20.5 20.5l15 14q0 -2 37 -40t84 -83q53 -53 121 -118l252 251l178 -196l-238 -242l228 -196l-207 -238l-223 221l-238 -227l-211 178l242 242z" />
<glyph unicode="&#xd8;" horiz-adv-x="1769" d="M31 688q0 150 43 256.5t112.5 180t157.5 117.5t180 68.5t179.5 32t152.5 7.5q57 0 127 -6.5t144.5 -21.5t151.5 -42t148 -66l175 164l262 -237q-23 -20 -54 -43q-27 -23 -63.5 -51.5t-81.5 -63.5q35 -63 54.5 -139t19.5 -168q0 -141 -42 -250t-111.5 -189.5t-160 -135 t-186.5 -87t-193.5 -47t-179.5 -14.5q-94 0 -201.5 17.5t-211.5 60.5l-181 -142l-108 134l119 102q-109 84 -180.5 220t-71.5 343zM526 502q0 -72 35 -137l479 415q-72 25 -166 25q-84 0 -148 -24.5t-108.5 -66.5t-68 -97.5t-23.5 -114.5zM696 221q41 -23 86 -35t99 -12 q78 0 143.5 24.5t113.5 69.5t74.5 106.5t26.5 133.5q0 66 -22 123q-131 -104 -265.5 -210t-255.5 -200z" />
<glyph unicode="&#xd9;" horiz-adv-x="1761" d="M41 1315l774 4l-4 -561l-166 -4v-410q0 -76 37 -105.5t90 -29.5h219q49 0 71.5 15.5t32 38t9.5 49v50.5l16 392h-155l-4 565l759 6l-14 -565l-129 2l-41 -369q-6 -59 -21.5 -126.5t-58.5 -125t-123 -96.5t-217 -41l-526 -8q-94 -2 -159.5 21.5t-110 60.5t-70 83t-38.5 91 t-17.5 84t-6.5 61l-24 363h-111zM422 1704l438 49l238 -328l-312 -14z" />
<glyph unicode="&#xda;" horiz-adv-x="1761" d="M41 1315l774 4l-4 -561l-166 -4v-410q0 -76 37 -105.5t90 -29.5h219q49 0 71.5 15.5t32 38t9.5 49v50.5l16 392h-155l-4 565l759 6l-14 -565l-129 2l-41 -369q-6 -59 -21.5 -126.5t-58.5 -125t-123 -96.5t-217 -41l-526 -8q-94 -2 -159.5 21.5t-110 60.5t-70 83t-38.5 91 t-17.5 84t-6.5 61l-24 363h-111zM690 1411l295 307l426 -61l-422 -252z" />
<glyph unicode="&#xdb;" horiz-adv-x="1761" d="M41 1315l774 4l-4 -561l-166 -4v-410q0 -76 37 -105.5t90 -29.5h219q49 0 71.5 15.5t32 38t9.5 49v50.5l16 392h-155l-4 565l759 6l-14 -565l-129 2l-41 -369q-6 -59 -21.5 -126.5t-58.5 -125t-123 -96.5t-217 -41l-526 -8q-94 -2 -159.5 21.5t-110 60.5t-70 83t-38.5 91 t-17.5 84t-6.5 61l-24 363h-111zM530 1401l258 354l412 6l154 -360l-348 -6l-70 129l-121 -117z" />
<glyph unicode="&#xdc;" horiz-adv-x="1761" d="M41 1315l774 4l-4 -561l-166 -4v-410q0 -76 37 -105.5t90 -29.5h219q49 0 71.5 15.5t32 38t9.5 49v50.5l16 392h-155l-4 565l759 6l-14 -565l-129 2l-41 -369q-6 -59 -21.5 -126.5t-58.5 -125t-123 -96.5t-217 -41l-526 -8q-94 -2 -159.5 21.5t-110 60.5t-70 83t-38.5 91 t-17.5 84t-6.5 61l-24 363h-111zM256 1718l567 -14v-277l-549 -18zM954 1710l551 4l-16 -276l-526 10z" />
<glyph unicode="&#xdd;" horiz-adv-x="1949" d="M41 1321h915l-12 -559l-133 -4l219 -180l254 184l-154 -4l-4 561l783 6l-43 -565l-183 -4l-481 -383l6 -189l187 4l-6 -186l-885 -8l-17 194l248 -2v160l-502 410l-157 4zM797 1393l295 307l426 -62l-422 -252z" />
<glyph unicode="&#xde;" horiz-adv-x="1738" d="M41 1325l674 -6l-4 -225l422 -4q74 0 175 -17.5t192 -63.5t154.5 -130t63.5 -217q0 -135 -50 -221.5t-128 -135.5t-171 -68.5t-179 -19.5h-492l2 -217l-610 -12l-6 217l149 -4l3 557h-181zM690 414q100 0 184 2q72 0 140.5 1t93.5 1t51.5 10t48 27.5t35.5 43t14 56.5 q0 63 -41.5 88t-107.5 25q-41 0 -110.5 -1t-137.5 -3q-80 -2 -166 -2z" />
<glyph unicode="&#xdf;" horiz-adv-x="1724" d="M41 186l186 15l-57 776q-6 94 12.5 186t75.5 165t162.5 118t273.5 45q162 0 261.5 -56.5t150.5 -139.5t64.5 -177t3.5 -168q-10 -76 -10.5 -134t16 -101t54.5 -72t103 -47q57 -18 123 -42t119 -57.5t89 -81t36 -110.5q0 -70 -27.5 -128t-77 -101t-119 -67.5t-155.5 -24.5 t-141.5 18t-89 45t-52 52.5t-30.5 41.5l-11 -141l-182 -8l6 297l301 6q6 -16 20.5 -39t38 -42t57.5 -32.5t77 -13.5t85 20.5t54 49t-21.5 62.5t-140.5 62l-200 50q-86 20 -142.5 54t-91.5 74t-51 83t-21.5 86t-4.5 80.5t3 68.5q4 90 -18 141.5t-78 51.5q-49 0 -67.5 -51.5 t-14.5 -143.5l29 -864l-594 8z" />
<glyph unicode="&#xe0;" horiz-adv-x="1320" d="M20 276q0 76 27 129.5t75 87t114.5 48t144.5 14.5q152 0 240 -14.5t135 -18.5q4 31 5 59.5t-12.5 51t-47 37t-97.5 14.5q-66 0 -152.5 -16.5t-166.5 -36.5q-94 -23 -193 -51l29 487q74 16 162 29q76 10 178 19t219 9t212 -27.5t161.5 -79.5t100.5 -129t30 -175l-27 -541 l133 8l-2 -180h-536l4 160q-53 -53 -119 -92q-55 -35 -128 -64t-155 -29q-166 0 -250 69t-84 232zM266 1516l379 61l238 -328l-252 -26zM446 295q0 -41 30 -64.5t69 -23.5q18 0 47 13t57.5 36t55 50t38.5 56q-29 2 -59 7q-27 4 -56.5 6t-58.5 2q-55 0 -89 -20.5t-34 -61.5z " />
<glyph unicode="&#xe1;" horiz-adv-x="1320" d="M20 276q0 76 27 129.5t75 87t114.5 48t144.5 14.5q152 0 240 -14.5t135 -18.5q4 31 5 59.5t-12.5 51t-47 37t-97.5 14.5q-66 0 -152.5 -16.5t-166.5 -36.5q-94 -23 -193 -51l29 487q74 16 162 29q76 10 178 19t219 9t212 -27.5t161.5 -79.5t100.5 -129t30 -175l-27 -541 l133 8l-2 -180h-536l4 160q-53 -53 -119 -92q-55 -35 -128 -64t-155 -29q-166 0 -250 69t-84 232zM446 295q0 -41 30 -64.5t69 -23.5q18 0 47 13t57.5 36t55 50t38.5 56q-29 2 -59 7q-27 4 -56.5 6t-58.5 2q-55 0 -89 -20.5t-34 -61.5zM449 1249l294 307l379 -61l-422 -252z " />
<glyph unicode="&#xe2;" horiz-adv-x="1320" d="M20 276q0 76 27 129.5t75 87t114.5 48t144.5 14.5q152 0 240 -14.5t135 -18.5q4 31 5 59.5t-12.5 51t-47 37t-97.5 14.5q-66 0 -152.5 -16.5t-166.5 -36.5q-94 -23 -193 -51l29 487q74 16 162 29q76 10 178 19t219 9t212 -27.5t161.5 -79.5t100.5 -129t30 -175l-27 -541 l133 8l-2 -180h-536l4 160q-53 -53 -119 -92q-55 -35 -128 -64t-155 -29q-166 0 -250 69t-84 232zM305 1223l283 354l278 6l236 -360l-273 -6l-145 129l-164 -123h-215zM446 295q0 -41 30 -64.5t69 -23.5q18 0 47 13t57.5 36t55 50t38.5 56q-29 2 -59 7q-27 4 -56.5 6 t-58.5 2q-55 0 -89 -20.5t-34 -61.5z" />
<glyph unicode="&#xe3;" horiz-adv-x="1320" d="M20 276q0 76 27 129.5t75 87t114.5 48t144.5 14.5q152 0 240 -14.5t135 -18.5q4 31 5 59.5t-12.5 51t-47 37t-97.5 14.5q-66 0 -152.5 -16.5t-166.5 -36.5q-94 -23 -193 -51l29 487q74 16 162 29q76 10 178 19t219 9t212 -27.5t161.5 -79.5t100.5 -129t30 -175l-27 -541 l133 8l-2 -180h-536l4 160q-53 -53 -119 -92q-55 -35 -128 -64t-155 -29q-166 0 -250 69t-84 232zM186 1253q45 82 101 150q47 57 111.5 105t142.5 53q47 2 84 -10.5t66.5 -27t55 -26.5t52 -11t56.5 20.5t69 70.5l307 -53q-74 -96 -150 -168q-33 -31 -68.5 -59.5t-72.5 -48 t-74 -30t-71 -4.5q-51 8 -90 29t-73 40.5t-63.5 33.5t-62.5 12t-70 -25.5t-86 -80.5zM446 295q0 -41 30 -64.5t69 -23.5q18 0 47 13t57.5 36t55 50t38.5 56q-29 2 -59 7q-27 4 -56.5 6t-58.5 2q-55 0 -89 -20.5t-34 -61.5z" />
<glyph unicode="&#xe4;" horiz-adv-x="1320" d="M20 276q0 76 27 129.5t75 87t114.5 48t144.5 14.5q152 0 240 -14.5t135 -18.5q4 31 5 59.5t-12.5 51t-47 37t-97.5 14.5q-66 0 -152.5 -16.5t-166.5 -36.5q-94 -23 -193 -51l29 487q74 16 162 29q76 10 178 19t219 9t212 -27.5t161.5 -79.5t100.5 -129t30 -175l-27 -541 l133 8l-2 -180h-536l4 160q-53 -53 -119 -92q-55 -35 -128 -64t-155 -29q-166 0 -250 69t-84 232zM180 1470l494 -10l-15 -233l-462 -17zM446 295q0 -41 30 -64.5t69 -23.5q18 0 47 13t57.5 36t55 50t38.5 56q-29 2 -59 7q-27 4 -56.5 6t-58.5 2q-55 0 -89 -20.5t-34 -61.5z M774 1464l465 4l-14 -233l-445 8z" />
<glyph unicode="&#xe5;" horiz-adv-x="1320" d="M20 276q0 76 27 129.5t75 87t114.5 48t144.5 14.5q152 0 240 -14.5t135 -18.5q4 31 5 59.5t-12.5 51t-47 37t-97.5 14.5q-66 0 -152.5 -16.5t-166.5 -36.5q-94 -23 -193 -51l29 487q74 16 162 29q76 10 178 19t219 9t212 -27.5t161.5 -79.5t100.5 -129t30 -175l-27 -541 l133 8l-2 -180h-536l4 160q-53 -53 -119 -92q-55 -35 -128 -64t-155 -29q-166 0 -250 69t-84 232zM408 1374q0 55 12 97t42 72t81 45.5t129 15.5q82 0 133 -16.5t79.5 -46.5t40 -72t11.5 -95q0 -51 -21.5 -86t-58.5 -57.5t-84 -32.5t-98 -10t-99.5 9t-85 30.5t-59 57.5 t-22.5 89zM446 295q0 -41 30 -64.5t69 -23.5q18 0 47 13t57.5 36t55 50t38.5 56q-29 2 -59 7q-27 4 -56.5 6t-58.5 2q-55 0 -89 -20.5t-34 -61.5zM582 1376q0 -35 26.5 -44t69.5 -9q41 0 65.5 11t24.5 46t-25.5 46.5t-74.5 11.5t-67.5 -13.5t-18.5 -48.5z" />
<glyph unicode="&#xe6;" horiz-adv-x="2045" d="M20 274q0 76 27 129.5t75 87t114.5 48t144.5 14.5q152 0 240 -14.5t135 -18.5q4 31 5 59.5t-12.5 51t-47 37t-97.5 14.5q-66 0 -152.5 -16.5t-166.5 -36.5q-94 -23 -193 -51l29 487q74 16 162 29q76 10 178 19t219 9q47 0 85 -4t70.5 -13t62.5 -22.5t60 -31.5 q74 49 170.5 72.5t212.5 23.5q150 0 287 -40t228.5 -135t120 -254t-39.5 -394l-792 -2q6 -43 35 -76q25 -29 72.5 -52.5t140.5 -23.5q92 0 185 13.5t171 29.5q90 20 174 45l-35 -195q-94 -31 -190 -53q-82 -20 -176.5 -35.5t-178.5 -15.5q-63 0 -141 7t-155.5 34t-147.5 75 t-115 132q-29 -72 -75.5 -117t-104 -71.5t-122 -36t-128.5 -9.5q-166 0 -250 69t-84 232zM446 293q0 -41 30 -64.5t69 -23.5q18 0 47 13t57.5 35.5t55 50t38.5 56.5q-29 2 -59 7q-27 4 -56.5 6t-58.5 2q-55 0 -89 -20.5t-34 -61.5zM1139 479l411 15q14 41 0 75 q-12 27 -56 51.5t-140 24.5q-100 0 -145.5 -26.5t-61.5 -57.5q-18 -37 -8 -82z" />
<glyph unicode="&#xe7;" horiz-adv-x="1376" d="M61 541q0 96 17.5 199.5t64.5 189.5t127 141t207 55q92 0 157.5 -34.5t108.5 -88t68 -116t37 -115.5l-25 328h492l-43 -578l-447 -18q-10 33 -32 57q-18 23 -51 41.5t-85 18.5q-53 0 -89 -20.5t-57.5 -53.5t-31.5 -72t-10 -78q0 -43 11.5 -85t34 -73.5t56 -51t76.5 -19.5 q51 0 87 17.5t57.5 44t32 58t14.5 60.5l403 -4l-10 -395l-221 -4l18 217q-14 -18 -40.5 -49t-73 -62t-112 -56.5t-155.5 -33.5l-37 -274h-315l115 293q-84 27 -148.5 81t-108.5 127.5t-68 163.5t-24 189z" />
<glyph unicode="&#xe8;" horiz-adv-x="1384" d="M61 483q0 348 160 506t459 158q150 0 287 -40t228 -135t119.5 -254t-38.5 -394l-793 -2q6 -43 35 -76q25 -29 74 -52.5t141 -23.5t185.5 13.5t171.5 29.5q90 20 174 45l-35 -195q-94 -31 -191 -53q-82 -20 -177 -35.5t-179 -15.5q-55 0 -122.5 6t-137.5 24.5t-134.5 53.5 t-114.5 93.5t-81 143.5t-31 203zM307 1516l379 61l238 -328l-252 -26zM479 479l412 15q12 41 -2 75q-12 29 -55 52.5t-142 23.5q-100 0 -144 -26.5t-61 -57.5q-18 -37 -8 -82z" />
<glyph unicode="&#xe9;" horiz-adv-x="1384" d="M61 483q0 348 160 506t459 158q150 0 287 -40t228 -135t119.5 -254t-38.5 -394l-793 -2q6 -43 35 -76q25 -29 74 -52.5t141 -23.5t185.5 13.5t171.5 29.5q90 20 174 45l-35 -195q-94 -31 -191 -53q-82 -20 -177 -35.5t-179 -15.5q-55 0 -122.5 6t-137.5 24.5t-134.5 53.5 t-114.5 93.5t-81 143.5t-31 203zM479 479l412 15q12 41 -2 75q-12 29 -55 52.5t-142 23.5q-100 0 -144 -26.5t-61 -57.5q-18 -37 -8 -82zM489 1249l295 307l379 -61l-422 -252z" />
<glyph unicode="&#xea;" horiz-adv-x="1384" d="M61 483q0 348 160 506t459 158q150 0 287 -40t228 -135t119.5 -254t-38.5 -394l-793 -2q6 -43 35 -76q25 -29 74 -52.5t141 -23.5t185.5 13.5t171.5 29.5q90 20 174 45l-35 -195q-94 -31 -191 -53q-82 -20 -177 -35.5t-179 -15.5q-55 0 -122.5 6t-137.5 24.5t-134.5 53.5 t-114.5 93.5t-81 143.5t-31 203zM346 1223l283 354l278 6l236 -360l-273 -6l-145 129l-164 -123h-215zM479 479l412 15q12 41 -2 75q-12 29 -55 52.5t-142 23.5q-100 0 -144 -26.5t-61 -57.5q-18 -37 -8 -82z" />
<glyph unicode="&#xeb;" horiz-adv-x="1384" d="M61 483q0 348 160 506t459 158q150 0 287 -40t228 -135t119.5 -254t-38.5 -394l-793 -2q6 -43 35 -76q25 -29 74 -52.5t141 -23.5t185.5 13.5t171.5 29.5q90 20 174 45l-35 -195q-94 -31 -191 -53q-82 -20 -177 -35.5t-179 -15.5q-55 0 -122.5 6t-137.5 24.5t-134.5 53.5 t-114.5 93.5t-81 143.5t-31 203zM170 1470l494 -10l-15 -233l-463 -17zM479 479l412 15q12 41 -2 75q-12 29 -55 52.5t-142 23.5q-100 0 -144 -26.5t-61 -57.5q-18 -37 -8 -82zM852 1464l465 4l-14 -233l-445 8z" />
<glyph unicode="&#xec;" horiz-adv-x="802" d="M41 1087l602 7l-14 -906l153 -6l-14 -182l-692 6l-8 176h153l-8 385l-158 -6zM84 1530l336 108l151 -389l-252 -26z" />
<glyph unicode="&#xed;" horiz-adv-x="802" d="M41 1087l602 7l-14 -906l153 -6l-14 -182l-692 6l-8 176h153l-8 385l-158 -6zM166 1249l242 346l378 -61l-313 -287z" />
<glyph unicode="&#xee;" horiz-adv-x="802" d="M-4 1223l283 354l278 6l236 -360l-273 -6l-145 129l-164 -123h-215zM41 1087l602 7l-14 -906l153 -6l-14 -182l-692 6l-8 176h153l-8 385l-158 -6z" />
<glyph unicode="&#xef;" horiz-adv-x="802" d="M25 1511l340 -10l-15 -274l-309 -17zM41 1087l602 7l-14 -906l153 -6l-14 -182l-692 6l-8 176h153l-8 385l-158 -6zM440 1505l297 4l-14 -274l-277 8z" />
<glyph unicode="&#xf0;" horiz-adv-x="1339" d="M41 393q0 127 26.5 232.5t86 180.5t151.5 116t225 41q106 0 181 -31t123.5 -71t73 -80t28.5 -58q0 104 -31 175t-84 114l-35 -64l-235 66l20 80q-57 4 -118.5 -3.5t-126.5 -21.5l94 393q125 6 248 -12l14 57h405l-96 -178q129 -86 208 -236t79 -386q0 -225 -51 -371 t-137 -231t-197 -117.5t-229 -32.5q-119 0 -232 22.5t-200 73.5t-139 135t-52 207zM459 373q0 -66 15 -104t43 -59.5t68 -27.5t87 -6t84 9.5t63.5 34t39.5 65.5t13 102q0 125 -56 169t-167 44q-53 0 -90 -11t-59.5 -38t-31.5 -71t-9 -107z" />
<glyph unicode="&#xf1;" horiz-adv-x="1433" d="M41 1102h541l41 -375q12 88 41.5 161t73.5 125t104.5 81.5t138.5 29.5q76 0 136.5 -33.5t100 -86t60 -117t20.5 -123.5l-6 -584l121 -4l-2 -184l-532 4l18 489q2 70 -30.5 96.5t-79 24.5t-92.5 -25.5t-70 -56.5v-340l131 2v-194l-682 14l-6 178l165 -4l-10 373l-166 -2z M195 1253q45 82 100 150q47 57 111.5 105t142.5 53q47 2 84 -10.5t66.5 -27t55 -26.5t52.5 -11t56.5 20.5t68.5 70.5l307 -53q-74 -96 -149 -168q-33 -31 -69 -59.5t-73 -48t-73.5 -30t-71.5 -4.5q-51 8 -90 29t-73 40.5t-63.5 33.5t-62.5 12t-69.5 -25.5t-86.5 -80.5z" />
<glyph unicode="&#xf2;" d="M61 492q0 158 28 280.5t98.5 207.5t190.5 129t302 44q190 0 311 -45t188.5 -131t93 -208.5t25.5 -276.5q0 -145 -51 -247t-137 -166.5t-196.5 -94t-229.5 -29.5t-231.5 27.5t-199.5 90t-139.5 165t-52.5 254.5zM262 1516l379 61l238 -328l-252 -26zM473 360 q0 -61 16.5 -97t45 -55.5t68.5 -25.5t89 -6q96 0 151.5 40t55.5 159q0 117 -57.5 157.5t-171.5 40.5q-111 0 -154 -46t-43 -167z" />
<glyph unicode="&#xf3;" d="M61 492q0 158 28 280.5t98.5 207.5t190.5 129t302 44q190 0 311 -45t188.5 -131t93 -208.5t25.5 -276.5q0 -145 -51 -247t-137 -166.5t-196.5 -94t-229.5 -29.5t-231.5 27.5t-199.5 90t-139.5 165t-52.5 254.5zM473 360q0 -61 16.5 -97t45 -55.5t68.5 -25.5t89 -6 q96 0 151.5 40t55.5 159q0 117 -57.5 157.5t-171.5 40.5q-111 0 -154 -46t-43 -167zM516 1249l295 307l379 -61l-422 -252z" />
<glyph unicode="&#xf4;" d="M61 492q0 158 28 280.5t98.5 207.5t190.5 129t302 44q190 0 311 -45t188.5 -131t93 -208.5t25.5 -276.5q0 -145 -51 -247t-137 -166.5t-196.5 -94t-229.5 -29.5t-231.5 27.5t-199.5 90t-139.5 165t-52.5 254.5zM346 1223l283 354l278 6l236 -360l-273 -6l-145 129 l-164 -123h-215zM473 360q0 -61 16.5 -97t45 -55.5t68.5 -25.5t89 -6q96 0 151.5 40t55.5 159q0 117 -57.5 157.5t-171.5 40.5q-111 0 -154 -46t-43 -167z" />
<glyph unicode="&#xf5;" d="M61 492q0 158 28 280.5t98.5 207.5t190.5 129t302 44q190 0 311 -45t188.5 -131t93 -208.5t25.5 -276.5q0 -145 -51 -247t-137 -166.5t-196.5 -94t-229.5 -29.5t-231.5 27.5t-199.5 90t-139.5 165t-52.5 254.5zM250 1253q45 82 100 150q47 57 111.5 105t142.5 53 q47 2 84 -10.5t66.5 -27t55.5 -26.5t52.5 -11t56 20.5t68.5 70.5l307 -53q-74 -96 -149 -168q-33 -31 -69 -59.5t-72.5 -48t-73.5 -30t-72 -4.5q-51 8 -90 29t-72.5 40.5t-63.5 33.5t-62.5 12t-69.5 -25.5t-86 -80.5zM473 360q0 -61 16.5 -97t45 -55.5t68.5 -25.5t89 -6 q96 0 151.5 40t55.5 159q0 117 -57.5 157.5t-171.5 40.5q-111 0 -154 -46t-43 -167z" />
<glyph unicode="&#xf6;" d="M61 492q0 158 28 280.5t98.5 207.5t190.5 129t302 44q190 0 311 -45t188.5 -131t93 -208.5t25.5 -276.5q0 -145 -51 -247t-137 -166.5t-196.5 -94t-229.5 -29.5t-231.5 27.5t-199.5 90t-139.5 165t-52.5 254.5zM164 1470l493 -10l-14 -233l-463 -17zM473 360 q0 -61 16.5 -97t45 -55.5t68.5 -25.5t89 -6q96 0 151.5 40t55.5 159q0 117 -57.5 157.5t-171.5 40.5q-111 0 -154 -46t-43 -167zM758 1464l465 4l-15 -233l-444 8z" />
<glyph unicode="&#xf7;" horiz-adv-x="983" d="M41 717l901 18l-10 -274h-885zM309 811v143q0 53 1 98.5t3 45.5t60.5 -2t128.5 -4l184 -5l-4 -280zM319 381h349q6 -88 10 -156q4 -59 6 -107t0 -48l-16 1q-17 1 -42.5 2t-57 2t-64.5 3q-80 4 -178 10z" />
<glyph unicode="&#xf8;" d="M61 492q0 158 28 280.5t98.5 207.5t190.5 129t302 44q131 0 227.5 -21.5t165.5 -62.5l82 119q51 -39 90 -68q35 -25 61.5 -45t24.5 -20t-31.5 -37t-80.5 -100q45 -82 62 -189.5t17 -236.5q0 -145 -51 -247t-137 -166.5t-196.5 -94t-229.5 -29.5q-113 0 -213 25l-104 -132 l-99 60l78 112q-125 55 -205 169t-80 303zM473 360q0 -41 7 -68.5t20 -49.5l227 327q-14 2 -27.5 3t-29.5 1q-111 0 -154 -46t-43 -167zM629 178q16 -2 31.5 -2h31.5q96 0 151.5 40t55.5 159q0 70 -22 114z" />
<glyph unicode="&#xf9;" horiz-adv-x="1544" d="M31 1096l594 8l-11 -717q-2 -86 29 -146.5t96 -60.5q33 0 68 24.5t62.5 63.5t45 86t17.5 90l2 117l-158 -2l-16 541h596l-15 -907l162 14l-4 -205h-559v176q-20 -29 -55 -62.5t-84 -63t-111.5 -50t-140.5 -20.5t-138.5 25.5t-102.5 69.5t-64.5 103.5t-24.5 126.5l-10 246 l-168 -2zM307 1516l379 61l238 -328l-252 -26z" />
<glyph unicode="&#xfa;" horiz-adv-x="1544" d="M31 1096l594 8l-11 -717q-2 -86 29 -146.5t96 -60.5q33 0 68 24.5t62.5 63.5t45 86t17.5 90l2 117l-158 -2l-16 541h596l-15 -907l162 14l-4 -205h-559v176q-20 -29 -55 -62.5t-84 -63t-111.5 -50t-140.5 -20.5t-138.5 25.5t-102.5 69.5t-64.5 103.5t-24.5 126.5l-10 246 l-168 -2zM559 1249l295 307l379 -61l-422 -252z" />
<glyph unicode="&#xfb;" horiz-adv-x="1544" d="M31 1096l594 8l-11 -717q-2 -86 29 -146.5t96 -60.5q33 0 68 24.5t62.5 63.5t45 86t17.5 90l2 117l-158 -2l-16 541h596l-15 -907l162 14l-4 -205h-559v176q-20 -29 -55 -62.5t-84 -63t-111.5 -50t-140.5 -20.5t-138.5 25.5t-102.5 69.5t-64.5 103.5t-24.5 126.5l-10 246 l-168 -2zM346 1223l283 354l278 6l236 -360l-273 -6l-145 129l-164 -123h-215z" />
<glyph unicode="&#xfc;" horiz-adv-x="1544" d="M31 1096l594 8l-11 -717q-2 -86 29 -146.5t96 -60.5q33 0 68 24.5t62.5 63.5t45 86t17.5 90l2 117l-158 -2l-16 541h596l-15 -907l162 14l-4 -205h-559v176q-20 -29 -55 -62.5t-84 -63t-111.5 -50t-140.5 -20.5t-138.5 25.5t-102.5 70.5t-64.5 103.5t-24.5 125.5l-10 246 l-168 -2zM170 1470l494 -10l-15 -233l-463 -17zM764 1464l465 4l-15 -233l-444 8z" />
<glyph unicode="&#xfd;" horiz-adv-x="1488" d="M31 1087l696 13v-553l-117 2l183 -320l194 316h-147l4 561l614 -4l-20 -561h-172l-451 -768l227 -2l19 -181h-742l-6 193l207 -2l135 209h-139l-334 549l-135 2zM588 1249l295 307l379 -61l-422 -252z" />
<glyph unicode="&#xfe;" horiz-adv-x="1409" d="M41 1468l569 5l-10 -635q25 74 54.5 127t73.5 89t104.5 53t146.5 17t156.5 -43t120 -120.5t76 -187.5t26.5 -245q0 -270 -110.5 -413.5t-303.5 -143.5q-92 0 -158.5 30t-107.5 67q-51 41 -82 96v-541l-436 -2l8 1292l-113 -6zM586.5 431q17.5 -69 55.5 -113t84 -65.5 t77 -21.5t55.5 16.5t40.5 43t25.5 59.5t9.5 68q0 33 -7 72.5t-23.5 73.5t-43 57.5t-65.5 23.5q-41 0 -76 -8t-64 -19q-33 -10 -61 -24q-25 -94 -7.5 -163z" />
<glyph unicode="&#xff;" horiz-adv-x="1488" d="M31 1087l696 13v-553l-117 2l183 -320l194 316h-147l4 561l614 -4l-20 -561h-172l-451 -768l227 -2l19 -181h-742l-6 193l207 -2l135 209h-139l-334 549l-135 2zM170 1470l494 -10l-15 -233l-463 -17zM852 1464l465 4l-14 -233l-445 8z" />
<glyph unicode="&#x152;" horiz-adv-x="2719" d="M31 688q0 150 43 256.5t112.5 180t157.5 117.5t180 68.5t179.5 32t152.5 7.5q61 0 133 -7.5t148 -25.5l1480 6l-26 -756h-361l-14 193l-524 -6v-185l286 4l-4 -204l-295 -13l4 -172l525 6l18 193l338 18v-395l-1401 -10q-76 -23 -150.5 -33t-146.5 -10q-82 0 -176 13.5 t-186 45t-178 85t-151.5 135t-104.5 194.5t-39 262zM526 502q0 -61 26 -119.5t73 -105t111.5 -75t144.5 -28.5q78 0 143.5 24.5t113.5 69.5t74.5 106.5t26.5 133.5q0 143 -94 220t-271 77q-84 0 -148 -24.5t-108.5 -66.5t-68 -97.5t-23.5 -114.5z" />
<glyph unicode="&#x153;" horiz-adv-x="2220" d="M61 492q0 158 28 280.5t98.5 207.5t190.5 129t302 44q154 0 259 -29.5t177 -83.5q150 106 400 107q150 0 286.5 -40t228 -135t120 -254t-39.5 -394l-792 -2q6 -43 35 -76q25 -29 74 -52.5t141 -23.5t185 13.5t171 29.5q90 20 174 45l-35 -195q-94 -31 -190 -53 q-82 -20 -177 -35.5t-179 -15.5q-45 0 -99.5 4t-111 14.5t-112.5 31t-105 54.5q-84 -57 -188.5 -82.5t-217.5 -25.5q-119 0 -231.5 27.5t-199.5 90t-139.5 165t-52.5 254.5zM473 360q0 -61 16.5 -97t45 -55.5t68.5 -25.5t89 -6q96 0 151.5 40t55.5 159q0 117 -57.5 157.5 t-171.5 40.5q-111 0 -154 -46t-43 -167zM1315 479l411 15q12 41 -2 75q-12 29 -55 52.5t-141 23.5q-100 0 -144.5 -26.5t-60.5 -57.5q-18 -37 -8 -82z" />
<glyph unicode="&#x178;" horiz-adv-x="1949" d="M41 1321h915l-12 -559l-133 -4l219 -180l254 184l-154 -4l-4 561l783 6l-43 -565l-183 -4l-481 -383l6 -189l187 4l-6 -186l-885 -8l-17 194l248 -2v160l-502 410l-157 4zM406 1718l567 -14v-277l-547 -18zM1104 1710l551 4l-17 -276l-526 10z" />
<glyph unicode="&#x2c6;" d="M301 1223l283 354l278 6l236 -360l-273 -6l-145 129l-164 -123h-215z" />
<glyph unicode="&#x2dc;" d="M180 1253q45 82 101 150q47 57 111.5 105t142.5 53q47 2 83.5 -10.5t66.5 -27t55.5 -26.5t52 -11t56.5 20.5t69 70.5l307 -53q-74 -96 -150 -168q-33 -31 -68.5 -59.5t-72.5 -48t-74 -30t-72 -4.5q-51 8 -90 29t-72.5 40.5t-63.5 33.5t-62.5 12t-69.5 -25.5t-86 -80.5z " />
<glyph unicode="&#x2000;" horiz-adv-x="922" />
<glyph unicode="&#x2001;" horiz-adv-x="1845" />
<glyph unicode="&#x2002;" horiz-adv-x="922" />
<glyph unicode="&#x2003;" horiz-adv-x="1845" />
<glyph unicode="&#x2004;" horiz-adv-x="615" />
<glyph unicode="&#x2005;" horiz-adv-x="461" />
<glyph unicode="&#x2006;" horiz-adv-x="307" />
<glyph unicode="&#x2007;" horiz-adv-x="307" />
<glyph unicode="&#x2008;" horiz-adv-x="230" />
<glyph unicode="&#x2009;" horiz-adv-x="369" />
<glyph unicode="&#x200a;" horiz-adv-x="102" />
<glyph unicode="&#x2010;" horiz-adv-x="735" d="M61 707l613 18l-10 -328h-596z" />
<glyph unicode="&#x2011;" horiz-adv-x="735" d="M61 707l613 18l-10 -328h-596z" />
<glyph unicode="&#x2012;" horiz-adv-x="735" d="M61 707l613 18l-10 -328h-596z" />
<glyph unicode="&#x2013;" horiz-adv-x="983" d="M41 717l901 18l-10 -274h-885z" />
<glyph unicode="&#x2014;" horiz-adv-x="1325" d="M41 729l1243 12l-10 -280l-1227 6z" />
<glyph unicode="&#x2018;" horiz-adv-x="528" d="M41 698l39 627l217 12l27 -270l163 2l-2 -352z" />
<glyph unicode="&#x2019;" horiz-adv-x="528" d="M41 948l2 352l444 19l-38 -627l-218 -12l-26 270z" />
<glyph unicode="&#x201a;" horiz-adv-x="483" d="M41 362l401 -6l-24 -596l-228 4l13 224l-152 10z" />
<glyph unicode="&#x201c;" horiz-adv-x="983" d="M41 672l31 622l213 -8l-17 -252h174l-18 -360zM541 678l24 596l228 -4l-13 -223l152 -11l10 -364z" />
<glyph unicode="&#x201d;" horiz-adv-x="983" d="M41 1292l401 -6l-24 -596l-228 4l13 224l-152 10zM541 930l18 360l383 2l-31 -622l-213 8l17 252h-174z" />
<glyph unicode="&#x201e;" horiz-adv-x="983" d="M41 362l401 -6l-24 -596l-228 4l13 224l-152 10zM541 0l18 360l383 2l-31 -622l-213 8l17 252h-174z" />
<glyph unicode="&#x2022;" horiz-adv-x="1128" d="M41 891l371 12l143 332l150 -328l382 -24l-268 -271l33 -340l-301 179l-324 -172l52 352z" />
<glyph unicode="&#x2026;" horiz-adv-x="1665" d="M41 -16l4 376l479 -6v-182q0 -68 -2 -124t-4 -56h-23.5t-55 -1t-75.5 -2t-88 -1q-104 -2 -235 -4zM672 -14l4 352l397 -6q8 -96 14 -170q4 -63 8.5 -115.5t2.5 -52.5h-20.5t-48.5 -1t-68.5 -2t-77.5 -1q-94 -2 -211 -4zM1237 301l365 16l12 -159q4 -59 8 -108.5t2 -49.5 h-344z" />
<glyph unicode="&#x202f;" horiz-adv-x="369" />
<glyph unicode="&#x2039;" horiz-adv-x="489" d="M41 649l121 383l305 -22l-166 -346l188 -406l-280 6z" />
<glyph unicode="&#x203a;" horiz-adv-x="526" d="M0 248l246 393l-185 385l295 6l129 -391l-190 -405z" />
<glyph unicode="&#x205f;" horiz-adv-x="461" />
<glyph unicode="&#x20ac;" horiz-adv-x="1411" d="M119 408l1085 -7l-12 -145l-1069 14zM119 459v164l1122 10l-22 -182zM180 614q0 125 35 221.5t92.5 168t129 121t143 79t138 43t113.5 13.5h225.5t129.5 -1.5t75.5 -2.5t69.5 -3l-74 -501h-301q-74 0 -130 -29t-95 -73t-58.5 -95t-19.5 -98q0 -49 12.5 -100.5t46 -94.5 t94 -70.5t159.5 -27.5q43 0 73.5 1t54 2t44 3t45.5 4l-15 -184q-23 -6 -44 -11.5t-54 -9.5t-79 -7t-116 -3q-115 0 -236.5 32t-224 106.5t-168 200.5t-65.5 316z" />
<glyph unicode="&#x2122;" horiz-adv-x="2131" d="M41 1319h846l-19 -434l-178 -23l12 176h-110l4 -348h119l-2 -106h-502l-8 114l121 -4l12 338l-111 -4l11 -176l-189 4zM934 1313h450l142 -414l166 414l397 2l-23 -309l-75 4l4 -320h92q4 0 4 -17.5t-2 -39.5q-2 -25 -4 -55l-451 6l2 100l97 4l12 338l-211 -461l-131 -6 l-197 471l4 -342l82 -2l8 -104l-335 6l-2 110l79 -4l-2 322l-96 -2z" />
<glyph unicode="&#x25fc;" horiz-adv-x="1116" d="M0 0v1116h1116v-1116h-1116z" />
<glyph unicode="&#xfb01;" horiz-adv-x="1644" d="M31 1051l155 -11q-12 117 5.5 206t62.5 149.5t112.5 91.5t153.5 31q135 0 220 -20.5t149 -35.5l-43 -284q-41 6 -83 4t-75 -18.5t-50 -50.5t-11 -93l864 29l-18 -861l151 -6l-12 -182l-694 6l-7 176h152l-19 434l-411 -16l16 -418l162 4v-192l-750 2l-8 184l164 8l-2 398 l-170 -6zM1014 1470l493 -10l-14 -233l-463 -17z" />
<glyph unicode="&#xfb02;" horiz-adv-x="1746" d="M31 1051l155 -11q-12 117 5.5 206t62.5 149.5t112.5 91.5t153.5 31q135 0 220 -20.5t149 -35.5l-43 -284q-41 6 -83 4t-75 -18.5t-50 -50.5t-11 -93l227 -19l-33 -403l-182 -16l10 -400l162 4v-192l-750 2l-8 184l164 8v375l-170 -6zM950 1468h606l-12 -1288l162 2 l-25 -184h-718l-5 184l185 -2l2 735l-189 -12z" />
</font>
</defs>
</svg>
