<?xml version="1.0" encoding="UTF-8" standalone="no"?>
<!-- Created with Inkscape (http://www.inkscape.org/) -->

<svg
   xmlns:dc="http://purl.org/dc/elements/1.1/"
   xmlns:cc="http://creativecommons.org/ns#"
   xmlns:rdf="http://www.w3.org/1999/02/22-rdf-syntax-ns#"
   xmlns:svg="http://www.w3.org/2000/svg"
   xmlns="http://www.w3.org/2000/svg"
   xmlns:xlink="http://www.w3.org/1999/xlink"
   version="1.1"
   width="75"
   height="75"
   id="svg2">
  <defs
     id="defs4">
    <linearGradient
       x1="0"
       y1="0"
       x2="1"
       y2="0"
       id="linearGradient3279"
       gradientUnits="userSpaceOnUse"
       gradientTransform="matrix(0,-64.347794,-64.347794,0,601.17969,272.70996)"
       spreadMethod="pad">
      <stop
         id="stop3281"
         style="stop-color:#221f20;stop-opacity:1"
         offset="0" />
      <stop
         id="stop3283"
         style="stop-color:#58595b;stop-opacity:1"
         offset="1" />
    </linearGradient>
    <linearGradient
       x1="0"
       y1="0"
       x2="1"
       y2="0"
       id="linearGradient9506"
       xlink:href="#linearGradient3279"
       gradientUnits="userSpaceOnUse"
       gradientTransform="matrix(0,64.347794,-64.347794,0,583.85557,777.53092)"
       spreadMethod="pad" />
  </defs>
  <metadata
     id="metadata7">
    <rdf:RDF>
      <cc:Work
         rdf:about="">
        <dc:format>image/svg+xml</dc:format>
        <dc:type
           rdf:resource="http://purl.org/dc/dcmitype/StillImage" />
        <dc:title></dc:title>
      </cc:Work>
    </rdf:RDF>
  </metadata>
  <g
     transform="translate(-546.23078,-773.18068)"
     id="layer1">
    <g
       transform="matrix(0.99580434,0,0,0.99576468,2.2917963,3.5923158)"
       id="g9499">
      <path
         d="m 548.18568,806.21158 c -0.17,1.414 -0.283,2.848 -0.283,4.309 0,19.873 16.111,35.986 35.984,35.986 19.877,0 35.988,-16.113 35.988,-35.986 0,-1.61 -0.142,-3.182 -0.349,-4.735 -9.748,4.655 -22.348,7.463 -36.121,7.463 -13.35,0 -25.6,-2.641 -35.219,-7.037"
         id="path3265"
         style="fill:#221f20;fill-opacity:1;fill-rule:nonzero;stroke:none" />
      <path
         d="m 548.18588,806.21088 c 9.619,4.397 21.869,7.038 35.218,7.038 l 0,0 c 13.774,0 26.373,-2.808 36.122,-7.463 l 0,0 c -2.319,-17.631 -17.374,-31.25 -35.639,-31.25 l 0,0 c -18.412,0 -33.57,13.837 -35.701,31.675"
         id="path3285"
         style="fill:url(#linearGradient9506);stroke:none" />
      <path
         d="m 583.88678,776.20768 c -18.92,0 -34.313,15.391 -34.313,34.313 0,18.919 15.393,34.314 34.313,34.314 18.92,0 34.316,-15.395 34.316,-34.314 0,-18.922 -15.396,-34.313 -34.316,-34.313 m 0,71.973 c -20.764,0 -37.656,-16.895 -37.656,-37.66 0,-20.766 16.892,-37.659 37.656,-37.659 20.766,0 37.66,16.893 37.66,37.659 0,20.765 -16.894,37.66 -37.66,37.66"
         id="path3297"
         style="fill:#ffffff;fill-opacity:1;fill-rule:nonzero;stroke:none" />
      <path
         d="m 566.72668,792.58658 c -2.186,2.816 -5.166,4.164 -6.645,3.008 -1.49,-1.151 -0.914,-4.369 1.276,-7.184 2.185,-2.818 5.16,-4.166 6.646,-3.012 1.485,1.153 0.914,4.372 -1.277,7.188"
         id="path3313"
         style="opacity:0.16999799;fill:#e8f8ff;fill-opacity:1;fill-rule:nonzero;stroke:none" />
      <path
         d="m 602.19738,836.85218 c -1.523,1.848 -3.656,2.6 -4.773,1.682 -1.114,-0.916 -0.782,-3.159 0.74,-5.006 1.521,-1.848 3.66,-2.604 4.775,-1.686 1.113,0.922 0.781,3.16 -0.742,5.01"
         id="path3329"
         style="opacity:0.16999799;fill:#e8f8ff;fill-opacity:1;fill-rule:nonzero;stroke:none" />
    </g>
  </g>
</svg>
