<?xml version="1.0" encoding="UTF-8" standalone="no"?>
<!-- Created with Inkscape (http://www.inkscape.org/) -->

<svg
   xmlns:dc="http://purl.org/dc/elements/1.1/"
   xmlns:cc="http://creativecommons.org/ns#"
   xmlns:rdf="http://www.w3.org/1999/02/22-rdf-syntax-ns#"
   xmlns:svg="http://www.w3.org/2000/svg"
   xmlns="http://www.w3.org/2000/svg"
   version="1.1"
   width="900"
   height="75"
   id="svg2">
  <defs
     id="defs52" />
  <metadata
     id="metadata4">
    <rdf:RDF>
      <cc:Work
         rdf:about="">
        <dc:format>image/svg+xml</dc:format>
        <dc:type
           rdf:resource="http://purl.org/dc/dcmitype/StillImage" />
        <dc:title></dc:title>
      </cc:Work>
    </rdf:RDF>
  </metadata>
  <g
     transform="translate(-28.16295,-386.1041)"
     id="g8"
     style="fill:#a8a9ac;fill-rule:nonzero">
    <path
       d="m 201.94,432.34 c 2.646,-0.0625 4.8059,-0.91549 6.4799,-2.559 1.674,-1.64351 2.538,-3.7024 2.592,-6.1769 v -0.048 c -0.052,-2.4725 -0.90801,-4.5234 -2.568,-6.1529 -1.65999,-1.6295 -3.812,-2.4744 -6.4559,-2.535 -2.646,0.0625 -4.8059,0.91551 -6.4799,2.559 -1.674,1.64349 -2.538,3.7025 -2.592,6.1769 v 0.048 c 0.052,2.4725 0.90798,4.5234 2.568,6.1529 1.66002,1.6295 3.8119,2.4745 6.4559,2.535 z m 0.048,-4.2 c -1.292,-0.0375 -2.326,-0.49049 -3.102,-1.359 -0.776,-0.86849 -1.174,-1.9275 -1.194,-3.177 v -0.048 c 0.018,-1.2475 0.40799,-2.2985 1.17,-3.153 0.76198,-0.85448 1.788,-1.2995 3.078,-1.335 1.3035,0.0375 2.3445,0.4905 3.123,1.359 0.77848,0.8685 1.1775,1.9275 1.197,3.177 v 0.048 c -0.0175,1.2475 -0.40851,2.2985 -1.173,3.153 -0.7645,0.85449 -1.7975,1.2995 -3.099,1.335 z"
       id="path10" />
    <path
       d="m 211.41,432 4.6559,0 0,-5.9999 7.9439,0 0,-3.864 -7.9439,0 0,-2.856 8.7839,0 0,-4.0799 -13.44,0 z"
       id="path12" />
    <path
       d="m 224.97,432 4.6559,0 0,-5.9999 7.9439,0 0,-3.864 -7.9439,0 0,-2.856 8.7839,0 0,-4.0799 -13.44,0 z"
       id="path14" />
  </g>
  <path
     d="m 48.999625,32.368179 c 4.889,2.822 4.889,7.441 0,10.264 -4.889,2.822 -12.889,7.441 -17.777,10.263 -4.889,2.823 -8.889,0.514 -8.889,-5.131 v -20.528 c 0,-5.645 4,-7.954 8.889,-5.132 4.888,2.823 12.888,7.442 17.777,10.264"
     id="path16"
     style="fill:#d8e236;fill-rule:nonzero" />
  <path
     d="m 127.87336,35.455 -1.87,0 c -1.007,-7.704 -7.599,-13.678 -15.574,-13.678 -8.668,0 -15.722003,7.054 -15.722003,15.724 0,8.668 7.054003,15.722 15.724003,15.722 2.284,0 4.488,-0.481 6.549,-1.426 1.102,-0.504 1.584,-1.807 1.08,-2.907 -0.505,-1.102 -1.805,-1.585 -2.91,-1.081 -1.484,0.68 -3.072,1.026 -4.721,1.026 -6.25,0 -11.334003,-5.085 -11.334003,-11.334 0,-6.251 5.084003,-11.335 11.334003,-11.335 5.551,0 10.173,4.014 11.141,9.289 h -1.529 c -2.154,0 -3.035,1.526 -1.959,3.393 1.077,1.865 2.84,4.918 3.918,6.784 1.077,1.866 2.84,1.866 3.916,0.001 1.078,-1.866 2.84,-4.919 3.916,-6.784 1.078,-1.867 0.197,-3.393 -1.959,-3.394"
     id="path18"
     style="fill:#ce2b2c;fill-rule:nonzero" />
  <path
     d="m 777.698,49.663 c 0.285,0.287 0.684,0.466 1.119,0.466 0.438,0 0.836,-0.179 1.119,-0.466 l 7.563,-7.564 7.562,7.564 c 0.285,0.287 0.684,0.466 1.121,0.466 0.438,0 0.834,-0.179 1.118,-0.466 l 2.363,-2.36 c 0.287,-0.286 0.467,-0.681 0.467,-1.12 0,-0.439 -0.18,-0.835 -0.467,-1.121 L 792.1,37.5 l 7.563,-7.563 c 0.287,-0.285 0.467,-0.681 0.467,-1.118 0,-0.44 -0.18,-0.837 -0.467,-1.122 L 797.3,25.336 c -0.284,-0.286 -0.68,-0.465 -1.118,-0.465 -0.437,0 -0.836,0.179 -1.121,0.465 l -7.562,7.565 -7.563,-7.565 c -0.283,-0.286 -0.681,-0.465 -1.119,-0.465 -0.435,0 -0.834,0.179 -1.119,0.465 l -2.359,2.361 c -0.289,0.285 -0.469,0.682 -0.469,1.122 0,0.437 0.18,0.833 0.469,1.118 l 7.562,7.563 -7.562,7.562 c -0.289,0.286 -0.469,0.682 -0.469,1.121 0,0.439 0.18,0.834 0.469,1.12 l 2.359,2.36 z"
     id="path20"
     style="fill:#ffffff;fill-rule:evenodd" />
  <path
     d="m 642.846,28.51053 c -0.598,-0.533 -1.514,-0.475 -2.045,0.123 -0.531,0.602 -0.475,1.52 0.125,2.047 1.889,1.676 3.076,4.101 3.078,6.816 -0.002,2.721 -1.189,5.147 -3.078,6.821 -0.6,0.529 -0.656,1.447 -0.125,2.045 0.285,0.326 0.686,0.488 1.086,0.488 0.342,0 0.686,-0.117 0.959,-0.361 2.484,-2.194 4.059,-5.413 4.055,-8.993 0.004,-3.574 -1.571,-6.793 -4.055,-8.986 m 8.654,8.986 c 0.002,-4.256 -1.666,-8.138 -4.371,-11.007 -0.547,-0.584 -1.467,-0.612 -2.049,-0.063 -0.582,0.549 -0.611,1.467 -0.062,2.051 2.223,2.361 3.582,5.523 3.582,9.019 0,3.5 -1.359,6.66 -3.582,9.026 -0.549,0.584 -0.52,1.502 0.062,2.049 0.28,0.265 0.637,0.396 0.995,0.396 0.386,0 0.771,-0.154 1.054,-0.457 2.705,-2.871 4.371,-6.752 4.371,-11.014 m -13.424,-10.847 -7.941,4.584 c -0.533,0.31 -1.473,0.56 -2.09,0.56 h -3.426 c -0.615,0 -1.119,0.504 -1.119,1.121 v 9.166 c 0,0.621 0.504,1.123 1.119,1.123 h 4.545 c 0,0 0.438,0.252 0.971,0.563 l 7.941,4.584 c 0.534,0.306 0.971,0.055 0.971,-0.559 v -20.584 c 0,-0.613 -0.437,-0.869 -0.971,-0.558"
     id="path22"
     style="fill:#a8a9ac;fill-rule:nonzero" />
  <path
     d="m 498.56262,37.414976 2.369,-2.369 c 0.565,-0.567 0.565,-1.483 0,-2.049 -0.568,-0.564 -1.48399,-0.564 -2.051,0 l -2.369,2.369 -2.371,-2.369 c -0.56799,-0.564 -1.484,-0.564 -2.053,0 -0.564,0.566 -0.564,1.482 0,2.049 l 2.373,2.369 -2.373,2.371 c -0.564,0.567 -0.564,1.483 0,2.051 0.284,0.283 0.657,0.426 1.02801,0.426 0.369,0 0.74199,-0.143 1.023,-0.426 l 2.37299,-2.369 2.369,2.369 c 0.28201,0.283 0.655,0.426 1.024,0.426 0.371,0 0.74401,-0.143 1.02701,-0.426 0.56499,-0.568 0.56499,-1.484 0,-2.051 l -2.36901,-2.371 z m -10.34,-10.766 -7.939,4.584 c -0.535,0.311 -1.477,0.563 -2.094,0.563 h -3.424 c -0.613,0 -1.12099,0.504 -1.12099,1.119 v 9.168 c 0,0.619 0.50799,1.123 1.12099,1.123 h 4.545 c 0.002,0 0.438,0.252 0.97301,0.561 l 7.93899,4.584 c 0.53501,0.308 0.97301,0.054 0.97301,-0.559 v -20.582 c 0,-0.615 -0.438,-0.869 -0.97301,-0.561"
     id="path24"
     style="fill:#a8a9ac;fill-rule:nonzero" />
  <path
     d="m 717.846,28.51053 c -0.598,-0.533 -1.514,-0.475 -2.045,0.123 -0.531,0.602 -0.475,1.52 0.125,2.047 1.889,1.676 3.076,4.101 3.078,6.816 0,2.721 -1.189,5.147 -3.078,6.821 -0.6,0.529 -0.656,1.447 -0.125,2.045 0.285,0.326 0.686,0.488 1.086,0.488 0.342,0 0.686,-0.117 0.959,-0.361 2.484,-2.194 4.059,-5.413 4.055,-8.993 0,-3.574 -1.571,-6.793 -4.055,-8.986 m 8.654,8.986 c 0,-4.256 -1.666,-8.138 -4.371,-11.007 -0.547,-0.584 -1.467,-0.612 -2.049,-0.063 -0.582,0.549 -0.611,1.467 -0.062,2.051 2.223,2.361 3.582,5.523 3.582,9.019 0,3.5 -1.359,6.66 -3.582,9.026 -0.549,0.584 -0.52,1.502 0.062,2.049 0.28,0.265 0.637,0.396 0.995,0.396 0.386,0 0.771,-0.154 1.054,-0.457 2.705,-2.871 4.371,-6.752 4.371,-11.014 m -13.424,-10.847 -7.941,4.584 c -0.533,0.31 -1.473,0.56 -2.09,0.56 h -3.426 c -0.615,0 -1.119,0.504 -1.119,1.121 v 9.166 c 0,0.621 0.504,1.123 1.119,1.123 h 4.545 c 0,0 0.438,0.252 0.971,0.563 l 7.941,4.584 c 0.534,0.306 0.971,0.055 0.971,-0.559 v -20.584 c 0,-0.613 -0.437,-0.869 -0.971,-0.558"
     id="path26"
     style="fill:#ce2b2c;fill-rule:nonzero" />
  <path
     d="m 573.56262,37.414976 2.369,-2.369 c 0.565,-0.567 0.565,-1.483 0,-2.049 -0.568,-0.564 -1.484,-0.564 -2.051,0 l -2.369,2.369 -2.371,-2.369 c -0.568,-0.564 -1.484,-0.564 -2.053,0 -0.564,0.566 -0.564,1.482 0,2.049 l 2.373,2.369 -2.373,2.371 c -0.564,0.567 -0.564,1.483 0,2.051 0.284,0.283 0.657,0.426 1.028,0.426 0.369,0 0.742,-0.143 1.023,-0.426 l 2.373,-2.369 2.369,2.369 c 0.28201,0.283 0.655,0.426 1.024,0.426 0.371,0 0.74401,-0.143 1.02701,-0.426 0.565,-0.568 0.565,-1.484 0,-2.051 l -2.36901,-2.371 z m -10.34,-10.766 -7.939,4.584 c -0.535,0.311 -1.477,0.563 -2.094,0.563 h -3.424 c -0.613,0 -1.121,0.504 -1.121,1.119 v 9.168 c 0,0.619 0.508,1.123 1.121,1.123 h 4.545 c 0,0 0.438,0.252 0.973,0.561 l 7.939,4.584 c 0.535,0.308 0.973,0.054 0.973,-0.559 v -20.582 c 0,-0.615 -0.438,-0.869 -0.973,-0.561"
     id="path28"
     style="fill:#ce2b2c;fill-rule:nonzero" />
  <g
     transform="translate(58.40505,-194.1041)"
     id="g30"
     style="fill:#ce2b2c;fill-rule:nonzero">
    <path
       d="m 345.94,240.34 c 2.646,-0.0625 4.8059,-0.91549 6.4799,-2.559 1.674,-1.64351 2.538,-3.7024 2.592,-6.1769 v -0.048 c -0.052,-2.4725 -0.90801,-4.5234 -2.568,-6.1529 -1.65999,-1.6295 -3.812,-2.4744 -6.4559,-2.535 -2.646,0.0625 -4.8059,0.91551 -6.4799,2.559 -1.674,1.64349 -2.538,3.7025 -2.592,6.1769 v 0.048 c 0.052,2.4725 0.90798,4.5234 2.568,6.1529 1.66002,1.6295 3.8119,2.4745 6.4559,2.535 z m 0.048,-4.2 c -1.292,-0.0375 -2.326,-0.49049 -3.102,-1.359 -0.776,-0.86849 -1.174,-1.9275 -1.194,-3.177 v -0.048 c 0.018,-1.2475 0.40799,-2.2985 1.17,-3.153 0.76198,-0.85448 1.788,-1.2995 3.078,-1.335 1.3035,0.0375 2.3445,0.4905 3.123,1.359 0.77848,0.8685 1.1775,1.9275 1.197,3.177 v 0.048 c -0.0175,1.2475 -0.40851,2.2985 -1.173,3.153 -0.7645,0.85449 -1.7975,1.2995 -3.099,1.335 z"
       id="path32" />
    <path
       d="m 355.41,240 4.6079,0 0,-9.2159 7.1759,9.2159 4.08,0 0,-16.8 -4.6079,0 0,8.8799 -6.9119,-8.8799 -4.3439,0 z"
       id="path34" />
  </g>
  <g
     transform="translate(-49.16295,-386.1041)"
     id="g36"
     style="fill:#ce2b2c;fill-rule:nonzero">
    <path
       d="m 297.94,432.34 c 2.646,-0.0625 4.8059,-0.91549 6.4799,-2.559 1.674,-1.64351 2.538,-3.7024 2.592,-6.1769 v -0.048 c -0.052,-2.4725 -0.90801,-4.5234 -2.568,-6.1529 -1.65999,-1.6295 -3.812,-2.4744 -6.4559,-2.535 -2.646,0.0625 -4.8059,0.91551 -6.4799,2.559 -1.674,1.64349 -2.538,3.7025 -2.592,6.1769 v 0.048 c 0.052,2.4725 0.90798,4.5234 2.568,6.1529 1.66002,1.6295 3.8119,2.4745 6.4559,2.535 z m 0.048,-4.2 c -1.292,-0.0375 -2.326,-0.49049 -3.102,-1.359 -0.776,-0.86849 -1.174,-1.9275 -1.194,-3.177 v -0.048 c 0.018,-1.2475 0.40799,-2.2985 1.17,-3.153 0.76198,-0.85448 1.788,-1.2995 3.078,-1.335 1.3035,0.0375 2.3445,0.4905 3.123,1.359 0.77848,0.8685 1.1775,1.9275 1.197,3.177 v 0.048 c -0.0175,1.2475 -0.40851,2.2985 -1.173,3.153 -0.7645,0.85449 -1.7975,1.2995 -3.099,1.335 z"
       id="path38" />
    <path
       d="m 307.41,432 4.6559,0 0,-5.9999 7.9439,0 0,-3.864 -7.9439,0 0,-2.856 8.7839,0 0,-4.0799 -13.44,0 z"
       id="path40" />
    <path
       d="m 320.97,432 4.6559,0 0,-5.9999 7.9439,0 0,-3.864 -7.9439,0 0,-2.856 8.7839,0 0,-4.0799 -13.44,0 z"
       id="path42" />
  </g>
  <g
     transform="translate(79.40505,-194.1041)"
     id="g44"
     style="fill:#a8a9ac;fill-rule:nonzero">
    <path
       d="m 249.94,240.34 c 2.646,-0.0625 4.8059,-0.91549 6.4799,-2.559 1.674,-1.64351 2.538,-3.7024 2.592,-6.1769 v -0.048 c -0.052,-2.4725 -0.90801,-4.5234 -2.568,-6.1529 -1.65999,-1.6295 -3.812,-2.4744 -6.4559,-2.535 -2.646,0.0625 -4.8059,0.91551 -6.4799,2.559 -1.674,1.64349 -2.538,3.7025 -2.592,6.1769 v 0.048 c 0.052,2.4725 0.90798,4.5234 2.568,6.1529 1.66002,1.6295 3.8119,2.4745 6.4559,2.535 z m 0.048,-4.2 c -1.292,-0.0375 -2.326,-0.49049 -3.102,-1.359 -0.776,-0.86849 -1.174,-1.9275 -1.194,-3.177 v -0.048 c 0.018,-1.2475 0.40799,-2.2985 1.17,-3.153 0.76198,-0.85448 1.788,-1.2995 3.078,-1.335 1.3035,0.0375 2.3445,0.4905 3.123,1.359 0.77848,0.8685 1.1775,1.9275 1.197,3.177 v 0.048 c -0.0175,1.2475 -0.40851,2.2985 -1.173,3.153 -0.7645,0.85449 -1.7975,1.2995 -3.099,1.335 z"
       id="path46" />
    <path
       d="m 259.41,240 4.6079,0 0,-9.2159 7.1759,9.2159 4.08,0 0,-16.8 -4.6079,0 0,8.8799 -6.9119,-8.8799 -4.3439,0 z"
       id="path48" />
  </g>
  <g
     transform="translate(572.0857,191.94907)"
     id="g5853">
    <path
       d="m 290.4146,-135.87412 -15.92,-9.626 0,5.304 15.92,9.626 15.919,-9.626 0,-5.304 -15.919,9.626 z"
       id="path16766"
       style="fill:#e1972e;fill-opacity:1;fill-rule:evenodd;stroke:none" />
    <path
       d="m 297.689,-164.40202 -1.871,1.824 c -0.647,0.631 -1.052,1.877 -0.9,2.768 l 0.442,2.575 c 0.153,0.892 -0.377,1.277 -1.178,0.855 l -2.311,-1.215 c -0.802,-0.421 -2.112,-0.421 -2.913,0 l -2.311,1.215 c -0.802,0.422 -1.331,0.037 -1.179,-0.855 l 0.442,-2.575 c 0.153,-0.891 -0.252,-2.137 -0.9,-2.768 l -1.87,-1.824 c -0.648,-0.631 -0.445,-1.254 0.449,-1.385 l 2.586,-0.375 c 0.895,-0.13 1.954,-0.901 2.355,-1.712 l 1.156,-2.342 c 0.4,-0.811 1.056,-0.811 1.456,0 l 1.156,2.342 c 0.401,0.811 1.461,1.582 2.356,1.712 l 2.585,0.375 c 0.894,0.131 1.097,0.754 0.45,1.385 m -23.194,-13.926 0,29.872 15.92,9.626 15.919,-9.626 0,-29.872 -31.839,0 z"
       id="path16770"
       style="fill:#e1972e;fill-opacity:1;fill-rule:evenodd;stroke:none" />
  </g>
</svg>
