<?xml version="1.0" encoding="UTF-8" standalone="no"?>
<!-- Created with Inkscape (http://www.inkscape.org/) -->

<svg
   xmlns:dc="http://purl.org/dc/elements/1.1/"
   xmlns:cc="http://creativecommons.org/ns#"
   xmlns:rdf="http://www.w3.org/1999/02/22-rdf-syntax-ns#"
   xmlns:svg="http://www.w3.org/2000/svg"
   xmlns="http://www.w3.org/2000/svg"
   version="1.1"
   width="126.9275"
   height="43.452499"
   viewbox="0 0 126.9275 43.452499"
   id="svg2">
  <defs
     id="defs4">
    <clipPath
       id="clipPath3039">
      <path
         d="m 0,34.762 101.542,0 L 101.542,0 0,0 0,34.762 z"
         id="path3041" />
    </clipPath>
    <linearGradient
       x1="0"
       y1="0"
       x2="1"
       y2="0"
       id="linearGradient3027"
       gradientUnits="userSpaceOnUse"
       gradientTransform="matrix(0,29.665192,-29.665192,0,15.492676,3.4707031)"
       spreadMethod="pad">
      <stop
         id="stop3029"
         style="stop-color:#f1623b;stop-opacity:1"
         offset="0" />
      <stop
         id="stop3031"
         style="stop-color:#f89734;stop-opacity:1"
         offset="1" />
    </linearGradient>
    <linearGradient
       x1="0"
       y1="0"
       x2="1"
       y2="0"
       id="linearGradient3007"
       gradientUnits="userSpaceOnUse"
       gradientTransform="matrix(0,34.002045,-34.002045,0,15.50293,0.4277344)"
       spreadMethod="pad">
      <stop
         id="stop3009"
         style="stop-color:#f1623b;stop-opacity:1"
         offset="0" />
      <stop
         id="stop3011"
         style="stop-color:#f89734;stop-opacity:1"
         offset="1" />
    </linearGradient>
  </defs>
  <metadata
     id="metadata7">
    <rdf:RDF>
      <cc:Work
         rdf:about="">
        <dc:format>image/svg+xml</dc:format>
        <dc:type
           rdf:resource="http://purl.org/dc/dcmitype/StillImage" />
        <dc:title></dc:title>
      </cc:Work>
    </rdf:RDF>
  </metadata>
  <g
     transform="translate(-311.53625,-510.63593)"
     id="layer1">
    <g
       transform="matrix(1.25,0,0,-1.25,311.53625,554.08843)"
       id="g2995">
      <g
         id="g2997">
        <g
           id="g3003">
          <g
             id="g3005">
            <path
               d="M 13.964,34.396 1.535,27.221 C 0.661,26.715 0,25.573 0,24.563 l 0,0 L 0,10.21 C 0,9.203 0.661,8.059 1.536,7.553 l 0,0 12.428,-7.176 C 14.386,0.133 14.931,0 15.499,0 l 0,0 c 0.567,0 1.113,0.133 1.534,0.377 l 0,0 12.428,7.176 c 0.876,0.506 1.535,1.65 1.535,2.657 l 0,0 0,14.353 c 0,1.01 -0.659,2.152 -1.535,2.658 l 0,0 -12.428,7.175 c -0.421,0.245 -0.977,0.366 -1.534,0.366 l 0,0 c -0.557,0 -1.113,-0.121 -1.535,-0.366 M 14.754,1.744 2.327,8.92 C 1.943,9.142 1.582,9.768 1.582,10.21 l 0,0 0,14.353 c 0,0.443 0.361,1.07 0.745,1.29 l 0,0 12.427,7.175 c 0.18,0.105 0.458,0.167 0.745,0.167 l 0,0 c 0.286,0 0.565,-0.062 0.745,-0.167 l 0,0 12.428,-7.175 c 0.383,-0.22 0.745,-0.847 0.745,-1.29 l 0,0 0,-14.353 c 0,-0.442 -0.362,-1.068 -0.745,-1.29 l 0,0 L 16.244,1.744 C 16.064,1.641 15.781,1.588 15.499,1.588 l 0,0 c -0.284,0 -0.566,0.053 -0.745,0.156"
               id="path3013"
               style="fill:url(#linearGradient3007);stroke:none" />
          </g>
        </g>
      </g>
    </g>
    <g
       transform="matrix(1.25,0,0,-1.25,311.53625,554.08843)"
       id="g3015">
      <g
         id="g3017">
        <g
           id="g3023">
          <g
             id="g3025">
            <path
               d="m 7.811,20.465 1.267,-6.154 1.923,0 -0.882,4.272 3.474,0 c 0.395,0 0.747,-0.251 0.874,-0.62 l 0,0 0.748,-3.652 1.921,0 -0.831,4.036 0.005,0.016 c -0.024,0.081 -0.073,0.145 -0.1,0.22 l 0,0 3.434,0 c 0.397,0 0.748,-0.251 0.875,-0.62 l 0,0 0.749,-3.652 1.92,0 -0.828,4.036 0.001,0.016 c -0.32,1.239 -1.436,2.102 -2.717,2.102 l 0,0 -11.833,0 z"
               id="path3033"
               style="fill:url(#linearGradient3027);stroke:none" />
          </g>
        </g>
      </g>
    </g>
    <path
       d="m 369.49525,529.57181 c -0.725,0 -1.92,0.5075 -2.0975,0.58875 -0.0225,0.007 -0.25875,0.0912 -0.5375,0.29625 -0.3275,-0.535 -0.8675,-0.885 -1.48,-0.885 -0.725,0 -1.92,0.5075 -2.0975,0.58875 -0.0125,0.004 -0.0962,0.0337 -0.21625,0.095 l 0,-0.68375 -1.36625,0 0,3.09875 0,3.46625 1.36625,0 0,-3.46625 c 0,-0.93625 0.59875,-1.19375 0.71,-1.23875 0.45625,-0.19625 1.27875,-0.49125 1.60375,-0.49125 0.20625,0 0.435,0.28125 0.435,0.685 l 0,1.045 0,3.46625 1.36625,0 0,-3.46625 c 0,-0.93625 0.6,-1.19375 0.71,-1.23875 0.45625,-0.19625 1.27875,-0.49125 1.60375,-0.49125 0.205,0 0.43375,0.2925 0.43375,0.685 l 0,4.51125 1.3675,0 0,-4.51125 c 0,-1.1325 -0.81,-2.05375 -1.80125,-2.05375"
       id="path3045"
       style="fill:#ffffff;fill-opacity:1;fill-rule:nonzero;stroke:none" />
    <path
       d="m 437.09712,534.53518 c 0,0.22875 -0.29125,0.48 -0.7125,0.48 l -2.34375,0 c -0.4225,0 -0.71375,-0.25125 -0.71375,-0.48 l 0,-0.6175 0,-2.5 c 0,-0.22625 0.29125,-0.4775 0.71375,-0.4775 l 2.34375,0 c 0.42125,0 0.7125,0.25125 0.7125,0.4775 l 0,2.5 0,0.6175 z m -0.7125,-4.9625 -2.34375,0 c -1.14875,0 -2.08125,0.8275 -2.08125,1.845 l 0,2.5 0,0.6175 c 0,1.0175 0.9325,1.84625 2.08125,1.84625 l 2.34375,0 c 1.1475,0 2.08,-0.82875 2.08,-1.84625 l 0,-0.6175 0,-2.5 c 0,-1.0175 -0.9325,-1.845 -2.08,-1.845"
       id="path3049"
       style="fill:#ffffff;fill-opacity:1;fill-rule:nonzero;stroke:none" />
    <path
       d="m 374.47025,531.98881 0,-0.57125 c 0,-0.25375 0.32,-0.4775 0.68375,-0.4775 l 2.2925,0 c 0.36625,0 0.685,0.22375 0.685,0.4775 l 0,0.61875 c 0,0.255 -0.31875,0.47625 -0.685,0.47625 l -2.97625,0 0,-0.47625 0,-0.0475 z m 4.1275,2.58125 c -0.12875,0.13 -0.29875,0.2 -0.4825,0.2 l -2.96125,0 c -0.37625,0 -0.68375,-0.30625 -0.68375,-0.68125 l 0,-0.2075 2.97625,0 c 1.1325,0 2.0525,-0.82625 2.0525,-1.845 l 0,-0.61875 c 0,-1.0175 -0.92,-1.84625 -2.0525,-1.84625 l -2.2925,0 c -1.13125,0 -2.05125,0.82875 -2.05125,1.84625 l 0,0.57125 0,0.0475 0,2.0525 c 0,1.12875 0.92,2.0475 2.05125,2.0475 l 2.96125,0 c 0.54875,0 1.065,-0.2125 1.4525,-0.6 l -0.97,-0.96625 z"
       id="path3053"
       style="fill:#ffffff;fill-opacity:1;fill-rule:nonzero;stroke:none" />
    <path
       d="m 402.605,532.18906 -2.55125,0 c -0.3725,-0.0188 -0.63,-0.235 -0.63,-0.435 l 0,-0.0187 0,-0.1025 0,-0.2 c 0,-0.21 0.28125,-0.44625 0.685,-0.44625 l 2.77875,0 c 0.2025,0 0.395,0.0625 0.5275,0.175 l 0.8725,-1.05375 c -0.38,-0.31625 -0.87625,-0.48875 -1.4,-0.48875 l -2.77875,0 c -1.13125,0 -2.0525,0.815 -2.0525,1.81375 l 0,0.2 0,0.1025 0,0.0187 c 0,0.99875 0.92125,1.81375 2.0525,1.81375 l 2.55375,0 c 0.36875,0.0213 0.6275,0.235 0.6275,0.43625 l 0,0.02 0,0.035 0,0.26625 c 0,0.21 -0.28125,0.44375 -0.685,0.44375 l -3.14625,0 c -0.20375,0 -0.39625,-0.0625 -0.52875,-0.17125 l -0.87375,1.0525 c 0.38,0.315 0.87875,0.48625 1.4025,0.48625 l 3.14625,0 c 1.1325,0 2.05375,-0.81375 2.05375,-1.81125 l 0,-0.26625 0,-0.035 0,-0.02 c 0,-1.00125 -0.92125,-1.815 -2.05375,-1.815"
       id="path3057"
       style="fill:#ffffff;fill-opacity:1;fill-rule:nonzero;stroke:none" />
    <path
       d="m 383.324,529.57181 c -1.13375,0 -2.0525,0.82875 -2.0525,1.84625 l 0,0.57125 0,0.0475 0,4.1 1.3675,0 0,-4.1 0,-0.0475 0,-0.57125 c 0,-0.255 0.32,-0.4775 0.685,-0.4775 l 2.14625,0 0,-1.36875 -2.14625,0 z"
       id="path3061"
       style="fill:#ffffff;fill-opacity:1;fill-rule:nonzero;stroke:none" />
    <path
       d="m 388.50625,536.13718 -1.36625,0 0,-6.54625 1.36625,0 0,6.54625 z"
       id="path3063"
       style="fill:#ffffff;fill-opacity:1;fill-rule:nonzero;stroke:none" />
    <path
       d="m 408.269,534.80618 c -0.365,0 -0.685,-0.22125 -0.685,-0.4775 l 0,-0.57 0,-0.0488 0,-2.72375 1.41,0 0,-1.36625 -1.41,0 0,-1.81625 -1.36875,0 0,5.90625 0,0.0488 0,0.57 c 0,1.02 0.9225,1.845 2.05375,1.845 l 2.09,0 0,-1.3675 -2.09,0 z"
       id="path3067"
       style="fill:#ffffff;fill-opacity:1;fill-rule:nonzero;stroke:none" />
    <path
       d="m 417.008,529.57181 0,0.1975 0,3.09875 c 0,1.29375 -0.60625,1.44375 -0.74125,1.47 -0.49,0.1175 -1.89375,0.43125 -2.485,0.43125 -0.26875,0 -0.4975,-0.315 -0.4975,-0.685 l 0,-4.5125 -1.36375,0 0,4.5125 c 0,1.1325 0.83375,2.05125 1.86125,2.05125 0.8625,0 2.61375,-0.42 2.7225,-0.455 0.14375,-0.0137 0.32,-0.065 0.50375,-0.14875 l 0,0.605 1.3675,0 0,-3.26875 0,-3.09875 0,-0.1975 -1.3675,0 z"
       id="path3071"
       style="fill:#ffffff;fill-opacity:1;fill-rule:nonzero;stroke:none" />
    <path
       d="m 424.64475,534.53768 c -0.02,10e-4 -1.89625,0.2325 -2.6525,0.2325 -0.26875,0 -0.49375,-0.315 -0.49375,-0.685 l 0,-0.375 0,-1.19875 0,-0.8125 c 0,-0.3675 0.225,-0.68375 0.49375,-0.68375 0.75625,0 2.6325,0.2325 2.6625,0.23375 0.21,0.035 0.565,0.3675 0.565,1.39125 l 0,0.50625 c 0,1.02 -0.355,1.35625 -0.575,1.39125 m 0.575,-6.91375 0,2.36625 c -0.15,-0.0612 -0.2925,-0.0937 -0.41,-0.10125 -0.08,-0.009 -1.98,-0.23875 -2.8175,-0.23875 -1.02625,0 -1.86125,0.91875 -1.86125,2.04875 l 0,0.8125 0,1.19875 0,0.375 c 0,1.13125 0.835,2.05 1.86125,2.05 0.8375,0 2.7375,-0.23 2.77875,-0.2375 0.13,-0.008 0.285,-0.0412 0.44875,-0.10875 l 0,0.3475 1.3675,0 0,-1.44375 0,-1.54625 0,-0.50625 0,-1.54625 0,-3.47 -1.3675,0 z"
       id="path3075"
       style="fill:#ffffff;fill-opacity:1;fill-rule:nonzero;stroke:none" />
    <path
       d="m 389.89262,536.1368 1.7625,0 1.79125,-2.2 1.79,2.2 1.76375,0 -2.6725,-3.2825 2.6725,-3.2825 -1.76375,0 -1.79,2.20125 -1.79125,-2.20125 -1.7625,0 2.67125,3.2825 -2.67125,3.2825 z"
       id="path3079"
       style="fill:#ffffff;fill-opacity:1;fill-rule:nonzero;stroke:none" />
    <path
       d="m 428.615,529.58343 1.4525,0 0,6.55375 -1.4525,0 0,-6.55375 z"
       id="path3081"
       style="fill:#ffffff;fill-opacity:1;fill-rule:nonzero;stroke:none" />
  </g>
</svg>
