<?xml version="1.0" encoding="UTF-8" standalone="no"?>
<!-- Created with Inkscape (http://www.inkscape.org/) -->

<svg
   xmlns:dc="http://purl.org/dc/elements/1.1/"
   xmlns:cc="http://creativecommons.org/ns#"
   xmlns:rdf="http://www.w3.org/1999/02/22-rdf-syntax-ns#"
   xmlns:svg="http://www.w3.org/2000/svg"
   xmlns="http://www.w3.org/2000/svg"
   xmlns:sodipodi="http://sodipodi.sourceforge.net/DTD/sodipodi-0.dtd"
   xmlns:inkscape="http://www.inkscape.org/namespaces/inkscape"
   id="svg3006"
   version="1.1"
   inkscape:version="0.48.4 r9939"
   width="147.47556"
   height="55.963375"
   xml:space="preserve"
   sodipodi:docname="gun.svg">
   <defs>
   <filter id="myGaussianBlur">
   <feGaussianBlur in="SourceGraphic" stdDeviation="4" />
   </filter>
   </defs><metadata
     id="metadata3012"><rdf:RDF><cc:Work
         rdf:about=""><dc:format>image/svg+xml</dc:format><dc:type
           rdf:resource="http://purl.org/dc/dcmitype/StillImage" /><dc:title></dc:title></cc:Work></rdf:RDF></metadata><defs
     id="defs3010"><inkscape:perspective
       sodipodi:type="inkscape:persp3d"
       inkscape:vp_x="5.6151356 : 21.987183 : 1"
       inkscape:vp_y="0 : 1379.9945 : 0"
       inkscape:vp_z="141.97781 : 21.987183 : 1"
       inkscape:persp3d-origin="73.796468 : 9.1156565 : 1"
       id="perspective3115" /><clipPath
       clipPathUnits="userSpaceOnUse"
       id="clipPath3028"><path
         d="m 0,44.771 59.05,0 L 59.05,0 0,0 0,44.771 z"
         id="path3030"
         inkscape:connector-curvature="0" /></clipPath></defs><sodipodi:namedview
     pagecolor="#ffffff"
     bordercolor="#666666"
     borderopacity="1"
     objecttolerance="10"
     gridtolerance="10"
     guidetolerance="10"
     inkscape:pageopacity="0"
     inkscape:pageshadow="2"
     inkscape:window-width="1638"
     inkscape:window-height="480"
     id="namedview3008"
     showgrid="false"
     fit-margin-top="0"
     fit-margin-left="0"
     fit-margin-right="0"
     fit-margin-bottom="0"
     inkscape:zoom="3.8746957"
     inkscape:cx="36.905856"
     inkscape:cy="27.981813"
     inkscape:window-x="0"
     inkscape:window-y="0"
     inkscape:window-maximized="0"
     inkscape:current-layer="g3014" /><g
     id="g3014"
     inkscape:groupmode="layer"
     inkscape:label="gun"
     transform="matrix(1.25,0,0,-1.25,-2.6781293e-4,55.96375)"><path
       d="m 50.274,26.17 -22.277,0 0,7.612 22.277,0 0,-7.612 z"
       style="fill:#bf1e2d;fill-opacity:1;fill-rule:nonzero;stroke:none"
       id="path3016"
       inkscape:connector-curvature="0" /><path
       d="m 57.599,28.374 -11.324,0 0,4.268 11.324,0 0,-4.268 z"
       style="fill:#ee1c24;fill-opacity:1;fill-rule:nonzero;stroke:none"
       id="path3018"
       inkscape:connector-curvature="0" /><path
       d="m 47.728,29.826 8.419,0 0,1.364 -8.419,0 0,-1.364 z m 11.322,-2.903 -14.227,0 0,7.171 14.227,0 0,-7.171 z"
       style="fill:#bf1e2d;fill-opacity:1;fill-rule:nonzero;stroke:none"
       id="path3020"
       inkscape:connector-curvature="0" /><path
       d="m 50.096,29.978 -21.155,0 0,3.89 21.155,0 0,-3.89 z"
       style="fill:#ff4652;fill-opacity:1;fill-rule:nonzero;stroke:none"
       id="path3022"
       inkscape:connector-curvature="0" /><g
       id="g3024"><g
         id="g3026"
         clip-path="url(#clipPath3028)"><path
           d="m 29.448,27.622 19.375,0 0,4.708 -19.375,0 0,-4.708 z m 20.826,-2.904 -22.277,0 c -0.803,0 -1.452,0.651 -1.452,1.452 l 0,7.612 c 0,0.802 0.649,1.451 1.452,1.451 l 22.277,0 c 0.802,0 1.454,-0.649 1.454,-1.451 l 0,-7.612 c 0,-0.801 -0.652,-1.452 -1.454,-1.452"
           style="fill:#bf1e2d;fill-opacity:1;fill-rule:nonzero;stroke:none"
           id="path3032"
           inkscape:connector-curvature="0" /><g
           id="g3034"
           transform="translate(12.0322,20.2041)"><path
             d="m 0,0 -10.58,-18.752 13.18,0 15.037,17.533 -17.199,2.077"
             style="fill:#ee1c24;fill-opacity:1;fill-rule:nonzero;stroke:none"
             id="path3036"
             inkscape:connector-curvature="0" /></g><g
           id="g3038"
           transform="translate(10.5674,16.957)"><path
             d="m 0,0 c 0,0 13.432,-4.138 13.768,-4.192 0.336,-0.054 4.711,6.169 4.711,6.169 L 2.373,4.605 0,0.207"
             style="fill:#bc232d;fill-opacity:1;fill-rule:nonzero;stroke:none"
             id="path3040"
             inkscape:connector-curvature="0" /></g><g
           id="g3042"
           transform="translate(3.9385,2.9033)"><path
             d="M 0,0 10.025,0 22.861,14.966 9.364,16.597 C 9.362,16.594 9.361,16.591 9.359,16.587 L 0,0 z m 10.693,-2.903 -13.179,0 c -0.517,0 -0.994,0.274 -1.254,0.719 -0.261,0.446 -0.264,0.996 -0.011,1.446 L 6.83,18.014 c 0.072,0.129 0.162,0.241 0.263,0.339 0.106,0.785 0.824,1.334 1.614,1.248 l 17.198,-2.079 c 0.532,-0.063 0.986,-0.416 1.179,-0.914 0.194,-0.501 0.098,-1.065 -0.251,-1.472 L 11.795,-2.396 C 11.52,-2.719 11.116,-2.903 10.693,-2.903"
             style="fill:#bf1e2d;fill-opacity:1;fill-rule:nonzero;stroke:none"
             id="path3044"
             inkscape:connector-curvature="0" /></g><g
           id="g3046"
           transform="translate(13.0723,35.4424)"><path
             d="m 0,0 -6.61,7.227 c 0,0 12.625,2.971 22.585,-3.781 C 15.975,1.102 0,0 0,0"
             style="fill:#bf1e2d;fill-opacity:1;fill-rule:nonzero;stroke:none"
             id="path3048"
             inkscape:connector-curvature="0" /></g><g
           id="g3050"
           transform="translate(9.3564,41.6563)"><path
             d="M 0,0 4.313,-4.714 C 9.15,-4.348 14.482,-3.605 17.027,-2.849 12.402,-0.352 7.403,0.212 3.838,0.212 2.355,0.212 1.043,0.116 0,0 m 3.716,-7.665 c -0.405,0 -0.796,0.17 -1.071,0.471 l -6.612,7.226 c -0.346,0.38 -0.467,0.916 -0.314,1.408 0.151,0.494 0.552,0.868 1.053,0.986 0.121,0.028 2.98,0.689 7.066,0.689 4.453,0 10.96,-0.811 16.668,-4.68 0.397,-0.271 0.637,-0.721 0.637,-1.203 0,-1.106 0,-3.7 -17.328,-4.893 C 3.782,-7.664 3.749,-7.665 3.716,-7.665"
             style="fill:#bf1e2d;fill-opacity:1;fill-rule:nonzero;stroke:none"
             id="path3052"
             inkscape:connector-curvature="0" /></g><g
           id="g3054"
           transform="translate(8.3193,33.7822)"><path
             d="m 0,0 0,-11.602 c 18.379,-5.501 32.678,-2.346 32.678,-2.346 l 0,20.049 C 32.678,6.101 15.037,5.917 0,0"
             style="fill:#ee1c24;fill-opacity:1;fill-rule:nonzero;stroke:none"
             id="path3056"
             inkscape:connector-curvature="0" /></g><g
           id="g3058"
           transform="translate(3.8623,28.374)"><path
             d="M 0,0 14.295,0"
             style="fill:#ee1c24;fill-opacity:1;fill-rule:nonzero;stroke:none"
             id="path3060"
             inkscape:connector-curvature="0" /></g><g
           id="g3062"
           transform="translate(17.3271,25.54)"><path
             d="m 0,0 -8.178,0 c -0.457,0 -0.83,0.65 -0.83,1.452 0,0.802 0.373,1.452 0.83,1.452 l 8.178,0 c 0.459,0 0.83,-0.65 0.83,-1.452 C 0.83,0.65 0.459,0 0,0"
             style="fill:#bc232d;fill-opacity:1;fill-rule:nonzero;stroke:none"
             id="path3064"
             inkscape:connector-curvature="0" /></g><g
           id="g3066"
           transform="translate(18.1572,26.9922)"><path
             d="m 0,0 -14.295,0 c -0.803,0 -1.453,0.651 -1.453,1.452 0,0.801 0.65,1.452 1.453,1.452 L 0,2.904 C 0.803,2.904 1.453,2.253 1.453,1.452 1.453,0.651 0.803,0 0,0"
             style="fill:#bf1e2d;fill-opacity:1;fill-rule:nonzero;stroke:none"
             id="path3068"
             inkscape:connector-curvature="0" /></g><g
           id="g3070"
           transform="translate(34.6846,18.9336)"><path
             d="M 0,0 3.897,-5.784"
             style="fill:#ee1c24;fill-opacity:1;fill-rule:nonzero;stroke:none"
             id="path3072"
             inkscape:connector-curvature="0" /></g><g
           id="g3074"
           transform="translate(38.583,11.6973)"><path
             d="m 0,0 c -0.467,0 -0.924,0.224 -1.205,0.641 l -3.899,5.785 c -0.447,0.664 -0.271,1.567 0.393,2.014 0.667,0.449 1.568,0.272 2.016,-0.393 L 1.203,2.263 C 1.651,1.599 1.476,0.695 0.811,0.247 0.562,0.08 0.279,0 0,0"
             style="fill:#bf1e2d;fill-opacity:1;fill-rule:nonzero;stroke:none"
             id="path3076"
             inkscape:connector-curvature="0" /></g><g
           id="g3078"
           transform="translate(8.3193,26.3184)"><path
             d="m 0,0 c 2.885,-2.885 24.953,-5.459 32.239,0 1.89,0 0,-6.707 0,-6.707 L 18.219,-7.385 1.105,-4.429 c 0,0 -3.989,7.314 -1.105,4.429"
             style="fill:#bc232d;fill-opacity:1;fill-rule:nonzero;stroke:none"
             id="path3080"
             inkscape:connector-curvature="0" /></g><g
           id="g3082"
           transform="translate(8.8076,31.166)"><path
             d="m 0,0 c 0.412,0.104 17.628,6.392 32.189,5.125 l 0,4.05 L 12.172,6.576 -1.135,2.928 0,0 z"
             style="fill:#ff4652;fill-opacity:1;fill-rule:nonzero;stroke:none"
             id="path3084"
             inkscape:connector-curvature="0" /></g><g
           id="g3086"
           transform="translate(9.7725,23.2695)"><path
             d="m 0,0 c 6.734,-1.914 13.639,-2.884 20.539,-2.884 l 0.002,0 c 4.365,0 7.615,0.406 9.231,0.662 l 0,17.336 C 25.381,14.923 11.914,13.985 0,9.515 L 0,0 z m 20.541,-5.788 -0.002,0 c -7.537,0 -15.076,1.114 -22.408,3.309 -0.614,0.183 -1.035,0.748 -1.035,1.39 l 0,11.602 c 0,0.595 0.365,1.132 0.92,1.35 15.113,5.948 32.463,6.195 33.193,6.202 0.395,0.029 0.76,-0.146 1.037,-0.419 0.275,-0.273 0.43,-0.644 0.43,-1.033 l 0,-20.049 c 0,-0.68 -0.473,-1.27 -1.139,-1.417 -0.173,-0.038 -4.31,-0.935 -10.996,-0.935"
             style="fill:#bf1e2d;fill-opacity:1;fill-rule:nonzero;stroke:none"
             id="path3088"
             inkscape:connector-curvature="0" /></g><g
           id="g3090"
           transform="translate(46.1924,19.6113)"><path
             d="m 0,0 c -0.802,0 -1.451,0.649 -1.451,1.451 l 0,17.826 c 0,0.802 0.649,1.452 1.451,1.452 0.803,0 1.452,-0.65 1.452,-1.452 l 0,-17.826 C 1.452,0.649 0.803,0 0,0"
             style="fill:#bf1e2d;fill-opacity:1;fill-rule:nonzero;stroke:none"
             id="path3092"
             inkscape:connector-curvature="0" /></g><g
           id="g3094"
           transform="translate(51.2998,20.7285)"><path
             d="m 0,0 c -0.802,0 -1.451,0.65 -1.451,1.452 l 0,15.592 c 0,0.802 0.649,1.452 1.451,1.452 0.803,0 1.452,-0.65 1.452,-1.452 l 0,-15.592 C 1.452,0.65 0.803,0 0,0"
             style="fill:#bf1e2d;fill-opacity:1;fill-rule:nonzero;stroke:none"
             id="path3096"
             inkscape:connector-curvature="0" /></g><g
           id="g3098"
           transform="translate(31.8838,35.2334)"><path
             d="m 0,0 c 0.154,-0.947 -2.119,-2.102 -5.074,-2.579 -2.957,-0.479 -5.477,-0.099 -5.63,0.85 -0.153,0.948 2.119,2.102 5.075,2.579 C -2.674,1.328 -0.152,0.948 0,0"
             style="fill:#ff4652;fill-opacity:1;fill-rule:nonzero;stroke:none"
             id="path3100"
             inkscape:connector-curvature="0" /></g></g></g><path
       sodipodi:type="star"
       style="filter:url(#myGaussianBlur);color:#000000;fill:#ee1c24;fill-opacity:1;fill-rule:nonzero;stroke:none;stroke-width:1px;marker:none;visibility:visible;display:inline;overflow:visible;enable-background:accumulate"
       id="path3158"
       sodipodi:sides="3"
       sodipodi:cx="76.393097"
       sodipodi:cy="17.508741"
       sodipodi:r1="15.227002"
       sodipodi:r2="7.6135011"
       sodipodi:arg1="3.1415927"
       sodipodi:arg2="4.1887902"
       inkscape:flatsided="true"
       inkscape:rounded="0"
       inkscape:randomized="0"
       d="m 61.166095,17.508741 22.840504,-13.1869699 -2e-6,26.3739409 z"
       transform="matrix(1.378531,0,0,-0.47120391,-28.366365,39.014194)"
       inkscape:transform-center-x="6.5596595" /></g></svg>